<?xml version="1.0" standalone="no"?>
<!DOCTYPE svg PUBLIC "-//W3C//DTD SVG 1.1//EN" "http://www.w3.org/Graphics/SVG/1.1/DTD/svg11.dtd" >
<svg>
<metadata>
Created by FontForge 20090622 at Sun Jan 21 20:35:00 2018
 By deploy user
Digitized data copyright Monotype Typography, Ltd 1999. All rights reserved. Monotype Bodoni&#194;&#174; is a trademark of Monotype Typography, Ltd which may be registered in certain jurisdictions.
</metadata>
<defs>
<font id="BodoniMT-Italic" horiz-adv-x="1004" >
  <font-face 
    font-family="Bodoni MT"
    font-weight="400"
    font-style="italic"
    font-stretch="normal"
    units-per-em="2048"
    panose-1="2 7 6 3 8 6 6 9 2 3"
    ascent="1638"
    descent="-410"
    x-height="799"
    cap-height="1341"
    bbox="-385 -537 2191 1878"
    underline-thickness="102"
    underline-position="-103"
    slope="-12"
    unicode-range="U+0020-U+FB02"
  />
<missing-glyph horiz-adv-x="2048" 
d="M256 0v1536h1536v-1536h-1536zM384 128h1280v1280h-1280v-1280z" />
    <glyph glyph-name=".notdef" horiz-adv-x="2048" 
d="M256 0v1536h1536v-1536h-1536zM384 128h1280v1280h-1280v-1280z" />
    <glyph glyph-name=".null" horiz-adv-x="0" 
 />
    <glyph glyph-name="nonmarkingreturn" horiz-adv-x="502" 
 />
    <glyph glyph-name="space" unicode=" " horiz-adv-x="502" 
 />
    <glyph glyph-name="exclam" unicode="!" horiz-adv-x="662" 
d="M330 377h-49q64 268 69 622q3 222 41.5 294.5t108.5 72.5q46 0 76 -35t30 -78q0 -93 -79.5 -273.5t-110 -270t-72.5 -271.5zM131 94q0 49 35.5 84t83.5 35q49 0 84 -35t35 -84t-35 -84t-84 -35q-48 0 -83.5 35.5t-35.5 83.5z" />
    <glyph glyph-name="quotedbl" unicode="&#x22;" horiz-adv-x="860" 
d="M295 788l31 297q18 188 57 237.5t100 49.5q37 0 57.5 -21t20.5 -48q0 -42 -84 -220l-139 -295h-43zM662 788l28 293q20 196 60 243.5t104 47.5q74 0 74 -67q0 -62 -78 -224l-141 -293h-47z" />
    <glyph glyph-name="numbersign" unicode="#" horiz-adv-x="1368" 
d="M92 961h330l88 409h102l-86 -409h439l86 409h104l-86 -409h205v-105h-225l-82 -389h307v-105h-328l-86 -409h-104l86 409h-441l-84 -409h-106l86 409h-205v105h227l82 389h-309v105zM944 856h-440l-82 -387h442z" />
    <glyph glyph-name="dollar" unicode="$" 
d="M766 1227l-115 -529q114 -100 153.5 -174.5t39.5 -158.5q0 -143 -96.5 -255t-251.5 -128l-37 -175h-39l37 173q-27 -7 -55 -7q-31 0 -60 9l-39 -175h-39l39 183q-106 32 -162.5 95.5t-56.5 131.5q0 50 28 84.5t68 34.5q38 0 65 -27t27 -65q0 -55 -39.5 -80.5t-39.5 -40.5
q0 -51 120 -90l129 594q-10 14 -71 75t-90 128t-29 133q0 110 84 201.5t248 113.5l14 61h35l-10 -59q25 3 41 3q25 0 75 -7l15 63h34l-14 -69q119 -28 172 -92t53 -123q0 -41 -28.5 -74t-71.5 -33q-34 0 -61 23.5t-27 58.5q0 44 41 70.5t41 38.5q0 54 -127 88zM612 1237
l-92 -418q45 -46 98 -90l111 504q-36 7 -117 4zM492 850l83 383q-192 -35 -192 -184q0 -95 109 -199zM467 29l104 479l-98 90l-123 -571q23 -8 55 -8q36 0 62 10zM604 473l-98 -444q115 26 167 89t52 136q0 109 -121 219z" />
    <glyph glyph-name="percent" unicode="%" horiz-adv-x="1898" 
d="M639 1376q84 0 140.5 -73t56.5 -205q0 -173 -110 -297.5t-228 -124.5q-84 0 -139.5 78t-55.5 196q0 163 104 294.5t232 131.5zM506 717q48 0 78 52.5t75.5 222t45.5 257.5q0 41 -21 63.5t-47 22.5q-40 0 -73 -37.5t-81.5 -236t-48.5 -266.5q0 -78 72 -78zM1518 1374h90
l-1254 -1442h-88zM1370 633q85 0 141 -73t56 -206q0 -173 -110 -297.5t-228 -124.5q-84 0 -139.5 78t-55.5 197q0 162 104 294t232 132zM1237 -27q48 0 78 53t75.5 222.5t45.5 257.5q0 41 -21 63.5t-47 22.5q-39 0 -72.5 -37.5t-82 -236.5t-48.5 -267q0 -78 72 -78z" />
    <glyph glyph-name="ampersand" unicode="&#x26;" horiz-adv-x="1665" 
d="M1550 236l37 -27q-161 -236 -383 -236q-178 0 -309 156q-179 -156 -389 -156q-168 0 -280.5 96t-112.5 246q0 311 475 471q-47 142 -47 230q0 146 97 248t284 102q134 0 218.5 -61t84.5 -158q0 -121 -126 -197t-280 -127q90 -264 203 -467q55 73 141 217.5t141.5 204.5
t141.5 60q65 0 107 -41.5t42 -94.5q0 -43 -29.5 -74.5t-70.5 -31.5q-40 0 -68 29t-28 69q0 19 8 39.5t8 22.5q0 14 -22 14q-56 0 -127.5 -120.5t-87.5 -145.5l-101 -158q-10 -14 -28 -45q115 -229 264 -229q127 0 237 164zM805 866q258 119 258 324q0 129 -143 129
q-92 0 -139.5 -48.5t-47.5 -127.5q0 -85 72 -277zM600 743q-248 -100 -248 -313q0 -141 70.5 -259t202.5 -118q110 0 241 115q-146 203 -266 575z" />
    <glyph glyph-name="quotesingle" unicode="'" horiz-adv-x="438" 
d="M270 788l31 297q19 188 57 237.5t99 49.5q78 0 78 -69q0 -46 -82 -220l-140 -295h-43z" />
    <glyph glyph-name="parenleft" unicode="(" 
d="M430 -475h-41q-156 302 -156 616q0 344 177 675.5t508 514.5l38 -26q-284 -160 -443 -651.5t-159 -743.5q0 -206 76 -385z" />
    <glyph glyph-name="parenright" unicode=")" 
d="M545 1331h41q155 -302 155 -616q0 -346 -177 -677t-507 -513l-39 26q285 160 444 651t159 744q0 216 -76 385z" />
    <glyph glyph-name="asterisk" unicode="*" 
d="M512 1278q0 39 23.5 66.5t58.5 27.5q37 0 58.5 -27.5t21.5 -60.5q0 -40 -34 -112.5t-34 -94.5t17 -22q27 0 86.5 88t128.5 88q37 0 58.5 -24.5t21.5 -51.5q0 -36 -35 -64t-70 -30q-172 -8 -172 -43q0 -25 95 -34q106 -10 141.5 -38t35.5 -69q0 -30 -21.5 -52t-49.5 -22
q-46 0 -72 24t-72.5 88t-72.5 64q-17 0 -17 -21q0 -28 32 -96t32 -110q0 -33 -22 -61.5t-58 -28.5t-57 27t-21 59q0 34 32 111t32 97q0 19 -15 19q-29 0 -88 -86t-125 -86q-36 0 -57 23t-21 51q0 93 158 104q115 7 115 37q0 31 -115 39q-162 8 -162 106q0 28 22 52t58 24
q68 0 127.5 -90t87.5 -90q12 0 12 14q0 29 -31.5 100t-31.5 105z" />
    <glyph glyph-name="plus" unicode="+" horiz-adv-x="1366" 
d="M141 713h488v485h106v-485h488v-107h-488v-485h-106v485h-488v107z" />
    <glyph glyph-name="comma" unicode="," horiz-adv-x="555" 
d="M82 -297l-10 49q136 45 204 129t68 164q0 35 -18 35q-15 0 -35 -31q-33 -49 -90 -49q-42 0 -71.5 29.5t-29.5 72.5q0 51 43.5 89t100.5 38q71 0 113 -54.5t42 -121.5q0 -102 -76 -197t-241 -153z" />
    <glyph glyph-name="hyphen" unicode="-" horiz-adv-x="662" 
d="M90 516h428v-182h-428v182z" />
    <glyph glyph-name="period" unicode="." horiz-adv-x="662" 
d="M170 94q0 49 35 83t84 34q48 0 82.5 -34t34.5 -83t-34.5 -84t-82.5 -35q-49 0 -84 35t-35 84z" />
    <glyph glyph-name="slash" unicode="/" horiz-adv-x="575" 
d="M575 1372l-466 -1403h-109l467 1403h108z" />
    <glyph glyph-name="zero" unicode="0" 
d="M379 -31q-126 0 -215.5 122t-89.5 353q0 329 184.5 598t370.5 269q142 0 223.5 -136.5t81.5 -328.5q0 -340 -183.5 -608.5t-371.5 -268.5zM627 1266q-90 0 -156.5 -97.5t-154 -457.5t-87.5 -502q0 -93 39 -144t107 -51q108 0 178.5 111.5t147.5 481.5t77 483
q0 75 -39.5 125.5t-111.5 50.5z" />
    <glyph glyph-name="one" unicode="1" 
d="M764 1311l-266 -1260h223l-10 -51h-625l10 51h209l258 1180h-235l10 51h133q211 0 293 29z" />
    <glyph glyph-name="two" unicode="2" 
d="M827 338l-79 -338h-717v61q133 173 415 412q304 256 304 592q0 87 -45.5 141t-124.5 54q-115 0 -196 -71.5t-81 -133.5q0 -9 8 -21t21 -12l45 4q88 0 88 -82q0 -42 -30 -70t-70 -28q-56 0 -91.5 45t-35.5 104q0 116 102 216t274 100q156 0 246 -83t90 -198
q0 -124 -86.5 -228.5t-352.5 -336t-331 -303.5h426q84 0 108 18t43 86t21 72h49z" />
    <glyph glyph-name="three" unicode="3" 
d="M567 702v-4q297 -47 297 -297q0 -174 -146.5 -302t-332.5 -128q-137 0 -227 72.5t-90 167.5q0 55 33 91t83 36q40 0 67.5 -26t27.5 -66q0 -67 -60 -92q-41 -19 -41 -39q0 -28 59 -58t119 -30q140 0 221.5 129.5t81.5 302.5q0 213 -182 213q-29 0 -78 -7.5t-53 -7.5
q-37 0 -37 33q0 39 51 39l98 -7q134 0 201.5 124t67.5 250q0 170 -147 170q-66 0 -118 -28t-52 -50q0 -13 8 -19q55 -36 55 -86q0 -38 -25 -66t-71 -28q-43 0 -68.5 28.5t-25.5 65.5q0 88 94 158t233 70q138 0 225 -76t87 -188q0 -259 -355 -345z" />
    <glyph glyph-name="four" unicode="4" 
d="M889 1315l-199 -924h176l27 119h51l-72 -320h-49l33 150h-178l-64 -289h146l-10 -51h-480l9 51h149l64 289h-465v41q317 454 768 934h94zM502 391l149 686l-4 4q-268 -298 -516 -637l-39 -53h410z" />
    <glyph glyph-name="five" unicode="5" 
d="M375 1114l-101 -391q103 45 222 45q155 0 259.5 -88.5t104.5 -245.5q0 -183 -138.5 -324t-350.5 -141q-130 0 -214.5 68t-84.5 166q0 116 108 116q47 0 70.5 -27t23.5 -65t-18.5 -56.5t-50 -32t-31.5 -32.5q0 -34 60.5 -61t119.5 -27q160 0 234 146t74 313
q0 145 -72.5 190.5t-140.5 45.5q-89 0 -191 -58l-49 7l133 530q16 62 42 75t110 13h235q99 0 125.5 10.5t48.5 55.5h47q-28 -104 -67.5 -155.5t-82 -64t-110.5 -12.5h-315z" />
    <glyph glyph-name="six" unicode="6" 
d="M956 1341v-47q-396 -14 -583 -536l4 -4q106 100 244 100q123 0 208.5 -99t85.5 -233q0 -204 -144 -378.5t-345 -174.5q-159 0 -249.5 114t-90.5 288q0 221 122.5 454t323.5 374.5t424 141.5zM596 803q-79 0 -158 -56t-93.5 -88.5t-54.5 -208.5t-40 -272q0 -80 52 -122
t120 -42t123 46.5t118.5 218.5t63.5 350q0 74 -34.5 124t-96.5 50z" />
    <glyph glyph-name="seven" unicode="7" 
d="M344 1280h682v-25l-217 -340q-21 -20 -103 -163t-138 -269.5t-56 -202.5l4 -159q0 -63 -33 -112.5t-88 -49.5q-39 0 -70.5 32.5t-31.5 80.5q0 96 100.5 270.5t204.5 335.5l274 426h-423q-97 0 -134 -27.5t-92 -161.5h-53z" />
    <glyph glyph-name="eight" unicode="8" 
d="M633 659v-4q237 -92 237 -284q0 -168 -138.5 -285t-328.5 -117q-166 0 -266 95t-100 227q0 116 94 222t285 153v4q-203 91 -203 276q0 156 128 260.5t296 104.5q150 0 241 -87.5t91 -211.5q0 -255 -336 -353zM635 1266q-115 0 -174.5 -135.5t-59.5 -307.5
q0 -62 35 -101.5t103 -39.5q111 0 176 136t65 274q0 76 -36.5 125t-108.5 49zM512 637q-136 0 -207.5 -132t-71.5 -325q0 -82 48 -124t125 -42q143 0 207.5 148.5t64.5 298.5q0 176 -166 176z" />
    <glyph glyph-name="nine" unicode="9" 
d="M41 -31l12 49q414 31 578 506l-4 4q-109 -106 -238 -106q-122 0 -210.5 94.5t-88.5 243.5q0 213 157 382t335 169q148 0 242 -116t94 -296q0 -342 -244.5 -636.5t-632.5 -293.5zM410 475q44 0 87.5 17.5t91.5 54t67.5 69.5t58.5 198t39 267q0 82 -43.5 130.5t-126.5 48.5
q-84 0 -138.5 -57t-110.5 -218t-56 -332q0 -90 40.5 -134t90.5 -44z" />
    <glyph glyph-name="colon" unicode=":" horiz-adv-x="662" 
d="M266 694q0 49 34.5 83t82.5 34q49 0 84 -34t35 -83t-35 -84t-84 -35t-83 35t-34 84zM150 94q0 49 34.5 83t83.5 34q48 0 82.5 -34t34.5 -83t-34 -84t-83 -35t-83.5 35t-34.5 84z" />
    <glyph glyph-name="semicolon" unicode=";" horiz-adv-x="662" 
d="M274 694q0 49 34.5 83t82.5 34q49 0 84 -34t35 -83t-35 -84t-84 -35q-48 0 -82.5 35t-34.5 84zM102 -297l-10 49q136 45 204.5 129t68.5 164q0 35 -19 35q-14 0 -35 -31q-32 -49 -90 -49q-42 0 -71 29.5t-29 72.5q0 51 43 89t100 38q71 0 113.5 -54.5t42.5 -121.5
q0 -102 -76.5 -197t-241.5 -153z" />
    <glyph glyph-name="less" unicode="&#x3c;" horiz-adv-x="1366" 
d="M1223 156l-1080 456v97l1080 454v-116l-934 -388l934 -387v-116z" />
    <glyph glyph-name="equal" unicode="=" horiz-adv-x="1366" 
d="M143 950h1080v-108h-1080v108zM143 483h1080v-108h-1080v108z" />
    <glyph glyph-name="greater" unicode="&#x3e;" horiz-adv-x="1366" 
d="M143 1163l1080 -456v-97l-1080 -454v116l936 385l-936 387v119z" />
    <glyph glyph-name="question" unicode="?" horiz-adv-x="768" 
d="M305 375h-47q-7 232 61 329t297 211q144 72 144 211q0 86 -63 141.5t-165 55.5q-90 0 -155.5 -40.5t-65.5 -70.5q0 -10 22 -19l40 -14q22 -8 38.5 -27t16.5 -52q0 -41 -29.5 -67.5t-66.5 -26.5q-45 0 -78 34.5t-33 81.5q0 100 91 175t229 75q137 0 222 -85.5t85 -215.5
q0 -298 -356 -446q-116 -49 -151.5 -92.5t-35.5 -157.5zM166 94q0 49 35 84t84 35q48 0 83 -35t35 -84q0 -48 -35 -83.5t-83 -35.5q-49 0 -84 35t-35 84z" />
    <glyph glyph-name="at" unicode="@" horiz-adv-x="1884" 
d="M1409 958l-182 -628q-29 -100 -29 -152q0 -26 19 -51t55 -25q150 0 288 196t138 458q0 265 -181 439.5t-466 174.5q-372 0 -615 -285t-243 -667q0 -354 220 -576.5t562 -222.5q261 0 472.5 139.5t330.5 413.5h57q-97 -292 -338.5 -453t-527.5 -161q-373 0 -623 251.5
t-250 634.5q0 414 278 696.5t668 282.5q330 0 522.5 -196.5t192.5 -489.5q0 -270 -155 -488t-398 -218q-151 0 -151 137q0 67 18 143l-4 4q-221 -284 -391 -284q-81 0 -130.5 71t-49.5 160q0 232 190 467.5t361 235.5q140 0 170 -140h4l30 111zM1182 774q0 60 -34.5 102
t-88.5 42q-132 0 -269 -236.5t-137 -388.5q0 -55 33 -98t82 -43q97 0 210.5 123t158.5 268t45 231z" />
    <glyph glyph-name="A" unicode="A" horiz-adv-x="1556" 
d="M993 444h-426l-319 -393h215l-10 -51h-447l10 51h164l1073 1321h50l-123 -1321h194l-10 -51h-623l9 51h200zM608 496h385l47 530l-4 4z" />
    <glyph glyph-name="B" unicode="B" horiz-adv-x="1430" 
d="M252 51l260 1239h-207l10 51h568q169 0 264 -25.5t161 -104t66 -171.5q0 -118 -99 -210.5t-314 -122.5v-5q168 -38 249.5 -131.5t81.5 -210.5q0 -110 -76 -203t-200.5 -125t-327.5 -32h-633l13 51h184zM745 1290l-118 -557h182q129 0 196 36t100.5 148.5t33.5 217.5
t-61 130t-206 25h-127zM616 682l-133 -631h228q149 0 208.5 37.5t95.5 164.5t36 253q0 82 -53.5 129t-209.5 47h-172z" />
    <glyph glyph-name="C" unicode="C" horiz-adv-x="1323" 
d="M1348 1323l-76 -375h-53q-12 373 -267 373q-158 0 -275.5 -153t-180 -409t-62.5 -433q0 -141 82 -223.5t211 -82.5q284 0 475 367h47l-96 -387h-45q-20 32 -57 80q-175 -111 -342 -111q-217 0 -373 148.5t-156 369.5q0 228 117 432.5t304.5 328.5t354.5 124
q171 0 263 -131q43 34 88 82h41z" />
    <glyph glyph-name="D" unicode="D" horiz-adv-x="1556" 
d="M250 51l260 1239h-207l12 51h543q136 0 233 -19t192 -97t144.5 -192.5t49.5 -239.5q0 -296 -213 -544.5t-584 -248.5h-625l11 51h184zM743 1290l-260 -1239h170q118 0 196.5 15t142.5 71t127 218t91.5 332t28.5 302q0 124 -53 195.5t-117 88.5t-197 17h-129z" />
    <glyph glyph-name="E" unicode="E" horiz-adv-x="1430" 
d="M758 1290l-121 -563h104q123 0 183.5 42.5t107.5 193.5h51l-120 -557h-52q11 55 11 110q0 49 -27 93.5t-59.5 55.5t-102.5 11h-106l-133 -625h352q124 0 183.5 16.5t134 109.5t149.5 245h51l-125 -422h-1173l10 51h184l262 1239h-207l11 51h1130l-61 -340h-45
q2 140 -29 201t-87 74.5t-177 13.5h-299z" />
    <glyph glyph-name="F" unicode="F" horiz-adv-x="1430" 
d="M756 1290l-125 -567h133q66 0 112 11.5t90 62t70 157.5h51l-126 -594h-52q21 78 21 134q0 80 -36.5 129t-137.5 49h-135l-134 -621h215l-12 -51h-631l13 51h184l264 1239h-184l12 51h1116l-80 -413h-47q6 168 -25.5 246.5t-85 97t-149.5 18.5h-321z" />
    <glyph glyph-name="G" unicode="G" horiz-adv-x="1323" 
d="M1286 1354l-63 -406h-47q-16 204 -93 288.5t-225 84.5q-165 0 -257.5 -161t-147 -467t-54.5 -408q0 -121 63.5 -193t178.5 -72q130 0 195 90t100 328h-193l11 51h589l-10 -51h-129q-78 -286 -224.5 -377.5t-303.5 -91.5q-254 0 -383 174.5t-129 386.5q0 330 221.5 586
t464.5 256q201 0 311 -125q45 42 80 107h45z" />
    <glyph glyph-name="H" unicode="H" horiz-adv-x="1665" 
d="M1180 672h-568l-129 -621h185l-11 -51h-606l12 51h185l264 1239h-184l12 51h602l-10 -51h-187l-120 -567h565l123 567h-185l11 51h600l-10 -51h-187l-262 -1239h184l-10 -51h-602l10 51h185z" />
    <glyph glyph-name="I" unicode="I" 
d="M831 1290l-268 -1239h185l-11 -51h-606l12 51h185l268 1239h-184l12 51h604l-10 -51h-187z" />
    <glyph glyph-name="J" unicode="J" horiz-adv-x="1217" 
d="M1087 1290l-178 -899q-64 -328 -220 -450.5t-331 -122.5q-119 0 -211 54.5t-92 154.5q0 60 34 94.5t81 34.5q45 0 75.5 -31t30.5 -74q0 -56 -36.5 -80t-36.5 -39q0 -23 40.5 -41t100.5 -18q108 0 169 53.5t88.5 133.5t53.5 212l201 1018h-190l10 51h606l-10 -51h-185z
" />
    <glyph glyph-name="K" unicode="K" horiz-adv-x="1665" 
d="M799 1290l-267 -1239h185l-10 -51h-603l11 51h184l268 1239h-184l10 51h602l-10 -51h-186zM905 795l506 -744h174l-10 -51h-600l10 51h166l-442 651l729 584v4h-201l10 51h463l-12 -51h-176z" />
    <glyph glyph-name="L" unicode="L" horiz-adv-x="1323" 
d="M745 1290l-264 -1239h264q127 0 198 23.5t132 104.5t133 257h52l-119 -436h-1086l11 51h186l260 1239h-199l11 51h630l-12 -51h-197z" />
    <glyph glyph-name="M" unicode="M" horiz-adv-x="1985" 
d="M860 1341l148 -1003h4l579 1003h475l-10 -51h-186l-266 -1239h184l-10 -51h-604l10 51h186l264 1239h-18l-737 -1290h-48l-190 1290h-18l-265 -1239h195l-10 -51h-430l12 51h184l264 1239h-184l10 51h461z" />
    <glyph glyph-name="N" unicode="N" horiz-adv-x="1665" 
d="M848 1341l446 -987h4l199 936h-184l12 51h399l-10 -51h-166l-278 -1306h-49l-594 1306h-17l-264 -1239h211l-10 -51h-465l12 51h199l264 1239h-195l11 51h475z" />
    <glyph glyph-name="O" unicode="O" horiz-adv-x="1323" 
d="M125 479q0 208 108 418.5t276.5 342.5t319.5 132q207 0 333 -156.5t126 -384.5q0 -330 -214 -596t-486 -266q-201 0 -332 158.5t-131 351.5zM1065 1083q0 240 -227 240q-132 0 -222.5 -103t-175 -433.5t-84.5 -532.5q0 -236 230 -236q134 0 219 92.5t172.5 456.5
t87.5 516z" />
    <glyph glyph-name="P" unicode="P" horiz-adv-x="1430" 
d="M543 1290h-205l10 51h588q211 0 298 -27.5t148.5 -109t61.5 -184.5q0 -163 -150 -282.5t-454 -119.5h-201l-115 -567h207l-10 -51h-641l10 51h203zM950 1290h-174l-127 -620h187q130 0 202 34t115 161t43 251q0 79 -42.5 126.5t-203.5 47.5z" />
    <glyph glyph-name="Q" unicode="Q" horiz-adv-x="1323" 
d="M1047 -365v-45q-116 -18 -205 -18q-199 0 -307.5 80.5t-108.5 234.5q0 29 16 111q-152 65 -234.5 199.5t-82.5 291.5q0 315 238 599t481 284q182 0 314 -152.5t132 -392.5q0 -263 -153 -510.5t-422 -330.5q-31 -107 -31 -166q0 -195 223 -195q57 0 140 10zM1065 1083
q0 240 -227 240q-132 0 -222.5 -103t-175 -433.5t-84.5 -532.5q0 -236 230 -236q134 0 219 92.5t172.5 456.5t87.5 516z" />
    <glyph glyph-name="R" unicode="R" horiz-adv-x="1430" 
d="M602 702l-135 -651h197l-11 -51h-614l12 51h185l260 1239h-207l10 51h623q210 0 325 -87t115 -210q0 -131 -125 -221.5t-389 -109.5v-4q178 -51 260 -137t82 -289q0 -142 18 -190t99 -48q37 0 106 23v-54q-103 -30 -168 -30q-148 0 -232.5 79t-84.5 281q0 209 -50 283.5
t-225 74.5h-51zM907 1290h-178l-117 -536h142q168 0 230.5 37.5t102 131t39.5 195.5q0 76 -37.5 124t-181.5 48z" />
    <glyph glyph-name="S" unicode="S" horiz-adv-x="1217" 
d="M1178 1341l-93 -383h-49q-1 194 -86 281.5t-215 87.5q-128 0 -212.5 -76.5t-84.5 -152.5q0 -59 52.5 -112.5t245.5 -136t276.5 -180.5t83.5 -241q0 -194 -144.5 -326.5t-335.5 -132.5q-175 0 -337 131q-81 -54 -132 -100h-38l96 389h41q21 -182 123 -275.5t247 -93.5
q149 0 244.5 82t95.5 199q0 90 -67 159t-258.5 154t-246 162.5t-54.5 186.5q0 184 119.5 296.5t293.5 112.5q189 0 293 -133q64 48 94 102h48z" />
    <glyph glyph-name="T" unicode="T" horiz-adv-x="1430" 
d="M1024 1290l-260 -1239h201l-9 -51h-634l12 51h198l261 1239h-72q-147 0 -250 -88t-184 -307h-47l94 446h1182l-97 -446h-49q6 45 6 78q0 111 -24.5 191.5t-76 103t-165.5 22.5h-86z" />
    <glyph glyph-name="U" unicode="U" horiz-adv-x="1665" 
d="M776 1290l-170 -796q-3 -1 -17 -79t-14 -136q0 -254 299 -254q173 0 286 101.5t167 381.5l152 782h-189l10 51h418l-10 -51h-176l-162 -827q-50 -262 -176.5 -378t-349.5 -116q-240 0 -367 103.5t-127 240.5q0 70 31 213l164 764h-193l10 51h605l-11 -51h-180z" />
    <glyph glyph-name="V" unicode="V" horiz-adv-x="1556" 
d="M723 291l801 999h-201l10 51h414l-10 -51h-148l-1065 -1321h-45l45 1321h-196l12 51h608l-12 -51h-184l-33 -995z" />
    <glyph glyph-name="W" unicode="W" horiz-adv-x="1985" 
d="M1200 295l780 995h-165l10 51h366l-10 -51h-135l-1038 -1321h-47l22 654l-4 4l-553 -658h-47l59 1321h-174l12 51h1432l-10 -51h-150l-327 -385l-25 -606zM664 1290l-48 -1011l5 -5l366 439l21 577h-344zM1231 1290l-10 -295l4 -4l254 299h-248z" />
    <glyph glyph-name="X" unicode="X" horiz-adv-x="1665" 
d="M973 823l448 467h-190l10 51h434l-10 -51h-174l-496 -518l328 -721h195l-11 -51h-628l12 51h182l-246 543l-512 -543h191l-12 -51h-439l11 51h180l559 590l-299 649h-199l8 51h646l-11 -51h-192z" />
    <glyph glyph-name="Y" unicode="Y" horiz-adv-x="1665" 
d="M983 684l516 606h-196l12 51h426l-12 -51h-162l-557 -659l-123 -580h192l-10 -51h-623l13 51h192l117 549l-344 690h-170l10 51h623l-10 -51h-199z" />
    <glyph glyph-name="Z" unicode="Z" horiz-adv-x="1323" 
d="M430 1341h938v-32l-1001 -1258h295q127 0 207.5 18.5t157.5 98.5t132 252h49l-94 -420h-1036v51l991 1239h-248q-113 0 -184 -18t-133.5 -87t-114.5 -214h-51z" />
    <glyph glyph-name="bracketleft" unicode="[" 
d="M586 1300h377v-38h-43q-104 0 -150 -18.5t-68 -96.5l-383 -1417q-16 -60 -16 -78q0 -31 27.5 -47.5t122.5 -16.5h55l-10 -39h-385z" />
    <glyph glyph-name="backslash" unicode="\" horiz-adv-x="575" 
d="M0 1372h109l466 -1403h-108z" />
    <glyph glyph-name="bracketright" unicode="]" 
d="M358 -451h-376v39h43q103 0 149.5 18.5t67.5 96.5l383 1417q16 60 16 78q0 31 -27 47.5t-122 16.5h-56l10 38h385z" />
    <glyph glyph-name="asciicircum" unicode="^" horiz-adv-x="864" 
d="M455 1372l422 -717h-121l-322 547l-319 -547h-125l424 717h41z" />
    <glyph glyph-name="underscore" unicode="_" horiz-adv-x="1024" 
d="M1036 -256h-1048v102h1048v-102z" />
    <glyph glyph-name="grave" unicode="`" horiz-adv-x="682" 
d="M645 940l-33 -16l-204 200q-119 119 -119 168q0 33 27.5 57.5t54.5 24.5q60 0 147 -176z" />
    <glyph glyph-name="a" unicode="a" 
d="M899 793l-135 -570q-19 -77 -19 -121q0 -41 29 -41q24 0 68 57.5t90 170.5h41q-54 -162 -127 -238t-141 -76q-124 0 -134 185h-4q-89 -185 -248 -185q-98 0 -168.5 92t-70.5 224q0 206 144.5 363t287.5 157q136 0 164 -149h4l29 131h190zM647 584q0 78 -33.5 130
t-93.5 52q-67 0 -109 -62t-96.5 -291.5t-54.5 -287.5q0 -98 76 -98q55 0 112.5 43t128 203t70.5 311z" />
    <glyph glyph-name="b" unicode="b" horiz-adv-x="874" 
d="M522 1356l-153 -658l4 -4q82 121 200 121q102 0 175 -83.5t73 -221.5q0 -199 -151 -367t-330 -168q-108 0 -183 63.5t-75 168.5q0 89 18 153q3 6 11 37l211 893h-121l10 51h117q108 0 194 15zM307 446l-24 -104q-29 -127 -29 -197q0 -62 32 -93.5t81 -31.5q67 0 114 57.5
t103.5 299t56.5 297.5q0 90 -88 90q-65 0 -133.5 -66t-112.5 -252z" />
    <glyph glyph-name="c" unicode="c" horiz-adv-x="768" 
d="M653 244h45q-132 -269 -331 -269q-131 0 -208 104.5t-77 237.5q0 180 140 337t343 157q78 0 130.5 -43.5t52.5 -97.5q0 -49 -29.5 -78t-67.5 -29q-36 0 -64 24.5t-28 67.5q0 40 31 74q10 10 10 23q0 14 -61 14q-65 0 -116.5 -55t-103 -273.5t-51.5 -275.5q0 -62 33 -102
t82 -40q139 0 270 224z" />
    <glyph glyph-name="d" unicode="d" 
d="M1020 1356l-266 -1131q-19 -73 -19 -123q0 -30 31 -30q64 0 147 200h48q-111 -297 -269 -297q-120 0 -131 179h-4q-97 -179 -240 -179q-98 0 -170.5 96t-72.5 226q0 194 139.5 358t292.5 164q125 0 162 -139h4l141 610h-188l12 51h164q115 0 219 15zM639 600
q0 70 -33 122t-96 52q-56 0 -95.5 -47.5t-100 -297t-60.5 -308.5q0 -38 22 -66t56 -28q131 0 219 206.5t88 366.5z" />
    <glyph glyph-name="e" unicode="e" horiz-adv-x="768" 
d="M297 346q-41 -184 -41 -219q0 -42 31 -74.5t88 -32.5q183 0 309 244h43q-67 -148 -163 -218.5t-197 -70.5q-124 0 -205.5 102.5t-81.5 237.5q0 179 142.5 337.5t301.5 158.5q103 0 159 -63.5t56 -139.5q0 -78 -76 -168.5t-366 -93.5zM307 391q140 3 186.5 38.5
t75.5 114.5t29 128q0 94 -84 94q-79 0 -121 -72t-86 -303z" />
    <glyph glyph-name="f" unicode="f" horiz-adv-x="662" 
d="M195 84l41 313l51 287q1 4 5 26.5t5 24.5h-184l10 51h186q60 293 186.5 436.5t264.5 143.5q80 0 137 -45t57 -109q0 -40 -25.5 -69t-62.5 -29q-36 0 -63 26.5t-27 61.5t29 64t29 32q0 21 -60 21q-135 0 -192.5 -146t-83.5 -387h145l-10 -51h-141l-73 -434
q-36 -212 -73 -345t-88.5 -235t-104 -154.5t-115 -78t-114.5 -25.5q-73 0 -124.5 40.5t-51.5 97.5q0 38 23 66t69 28q84 0 84 -94q0 -24 -11 -42t-11 -30q0 -18 28 -18q80 0 145 79.5t120 493.5z" />
    <glyph glyph-name="g" unicode="g" horiz-adv-x="874" 
d="M182 -45q-137 61 -137 174q0 144 164 205q-72 77 -72 174q0 122 103.5 212.5t230.5 90.5q154 0 227 -135h4q0 72 27.5 106.5t65.5 34.5q27 0 48 -19.5t21 -52.5q0 -65 -51 -65q-21 0 -33 19.5t-14 21.5q0 10 -10 10q-23 0 -23 -63l4 -88q0 -140 -105 -231t-241 -91
q-82 0 -158 47q-114 -42 -114 -108q0 -37 36 -56.5t156 -19.5q212 0 275.5 -17.5t104 -85t40.5 -159.5q0 -168 -121.5 -270.5t-330.5 -102.5q-169 0 -261 61.5t-92 155.5q0 161 256 252zM578 664q0 42 -23.5 72t-69.5 30q-109 0 -149.5 -148.5t-40.5 -207.5q0 -107 96 -107
q100 0 143.5 139t43.5 222zM676 -199q0 45 -29 82t-70.5 47.5t-156.5 10.5q-255 0 -316 -76.5t-61 -153.5q0 -88 67.5 -134t182.5 -46q184 0 283.5 87t99.5 183z" />
    <glyph glyph-name="h" unicode="h" 
d="M553 1356l-182 -750l4 -4q152 209 330 209q147 0 147 -147q0 -35 -21 -117l-79 -322q-19 -86 -19 -108q0 -54 33 -54q75 0 154 218h49q-89 -297 -285 -297q-137 0 -137 139q0 49 18 123l84 334q17 65 17 94q0 67 -52 67q-41 0 -119 -64.5t-114 -133.5t-64 -185l-86 -358
h-186l303 1290h-137l10 51h129q100 0 203 15z" />
    <glyph glyph-name="i" unicode="i" horiz-adv-x="662" 
d="M377 1223q0 45 33 77.5t77 32.5q46 0 78.5 -32t32.5 -78t-33 -78.5t-78 -32.5q-44 0 -77 32.5t-33 78.5zM496 805l-150 -617q-16 -76 -16 -98q0 -37 37 -37q46 0 106.5 66.5t118.5 197.5h45q-131 -342 -358 -342q-132 0 -132 138q0 42 12 89t19 77l111 456h-189l11 51
h116q143 0 269 19z" />
    <glyph glyph-name="j" unicode="j" horiz-adv-x="662" 
d="M412 1223q0 45 32.5 77.5t77.5 32.5q46 0 78.5 -32t32.5 -78t-33 -78.5t-78 -32.5t-77.5 32.5t-32.5 78.5zM541 803l-170 -719q-144 -598 -430 -598q-68 0 -114 30.5t-46 75.5q0 37 27 60.5t67 23.5t65 -26.5t25 -59.5l-4 -39q0 -24 27 -24q36 0 57 42t61 212l228 954
h-199l12 51h177q69 0 125 7z" />
    <glyph glyph-name="k" unicode="k" 
d="M55 0l305 1290h-151l10 51h135q77 0 213 15l-213 -885l4 -4q31 44 131 39q50 34 125 174q79 137 187 137q59 0 101 -38.5t42 -92.5q0 -37 -24.5 -66.5t-71.5 -29.5q-43 0 -64.5 27t-21.5 57q0 28 19.5 48.5t19.5 29.5q0 14 -25 14q-56 0 -99.5 -71t-51.5 -93
q-33 -55 -82 -106q107 -31 143.5 -82t36.5 -138l-6 -157q-3 -58 31 -58q79 0 174 220h43q-55 -153 -139 -225t-173 -72q-137 0 -137 143q0 29 13.5 79t20.5 88.5t11 43.5q0 3 4 25t4 36q0 53 -61 68q-63 -49 -105 -49q-41 0 -47 35h-4l-108 -453h-189z" />
    <glyph glyph-name="l" unicode="l" horiz-adv-x="555" 
d="M555 1356l-270 -1163q-15 -63 -15 -91q0 -34 25 -34q86 0 172 229h45q-111 -322 -299 -322q-52 0 -91.5 34.5t-39.5 96.5q0 24 14 87l252 1097h-137l10 51h135q63 0 199 15z" />
    <glyph glyph-name="m" unicode="m" horiz-adv-x="1556" 
d="M465 803l-53 -219l4 -4q154 231 327 231q77 0 119.5 -41.5t42.5 -91.5q0 -10 -10 -86l4 -4q151 223 342 223q62 0 106 -38t44 -97q0 -40 -17 -107l-92 -374q-16 -73 -16 -89q0 -43 30 -43q29 0 79.5 52t90.5 172h47q-44 -150 -125.5 -226.5t-160.5 -76.5
q-67 0 -108.5 33.5t-41.5 99.5q0 25 17 90l96 381q4 7 11 44.5t7 51.5q0 20 -16 35.5t-37 15.5q-58 0 -164.5 -99.5t-161.5 -328.5l-73 -307h-191l129 543q25 101 25 131q0 23 -15.5 43t-39.5 20q-60 0 -162.5 -110.5t-153.5 -325.5l-72 -301h-192l178 735h-170l10 51h160
q107 0 203 17z" />
    <glyph glyph-name="n" unicode="n" horiz-adv-x="1110" 
d="M483 803l-51 -217l4 -4q169 229 348 229q66 0 109 -39.5t43 -105.5q0 -27 -16 -95l-91 -370q-14 -58 -14 -86q0 -49 33 -49q89 0 180 219h47q-58 -157 -141.5 -229t-169.5 -72q-137 0 -137 129q0 44 22 133l84 335q1 6 8 32t7 55q0 67 -54 67q-59 0 -167.5 -101
t-174.5 -382l-59 -252h-189l172 735h-172l11 51h135q139 0 233 17z" />
    <glyph glyph-name="o" unicode="o" horiz-adv-x="874" 
d="M76 319q0 197 140 344.5t312 147.5q138 0 213.5 -99t75.5 -237q0 -193 -142.5 -346.5t-307.5 -153.5q-132 0 -211.5 97t-79.5 247zM633 641q0 55 -29.5 90t-83.5 35q-81 0 -116.5 -66t-89.5 -267.5t-54 -293.5q0 -58 32.5 -88.5t76.5 -30.5q125 0 194.5 272.5t69.5 348.5
z" />
    <glyph glyph-name="p" unicode="p" horiz-adv-x="1030" 
d="M471 688q87 127 201 127q121 0 186.5 -86t65.5 -233q0 -205 -149 -363t-296 -158q-106 0 -147 129h-4l-127 -567h172l-11 -51h-518l11 51h155l277 1198h-181l13 51h119q172 0 256 17l-27 -111zM479 27q66 0 110 60t99 280t55 292q0 107 -86 107q-61 0 -109 -48t-74 -86
t-70 -200t-44 -221q0 -184 119 -184z" />
    <glyph glyph-name="q" unicode="q" horiz-adv-x="874" 
d="M868 797l-295 -1260h162l-10 -51h-524l10 51h172l137 584l-4 4q-91 -150 -215 -150q-106 0 -169.5 96t-63.5 222q0 184 132.5 351t284.5 167q127 0 160 -137h4l27 123h192zM616 604q0 61 -31 112.5t-91 51.5q-55 0 -100 -64.5t-96.5 -300.5t-51.5 -286q0 -35 20.5 -63.5
t59.5 -28.5q57 0 129.5 79t116.5 248t44 252z" />
    <glyph glyph-name="r" unicode="r" horiz-adv-x="725" 
d="M453 799l-58 -248l4 -4q137 264 246 264q41 0 69.5 -27t28.5 -67t-27.5 -66t-70.5 -26q-40 0 -65.5 24.5t-32.5 24.5q-22 0 -70 -69t-74.5 -135t-58.5 -206l-63 -274h-189l164 745h-154l13 51h125q128 0 213 13z" />
    <glyph glyph-name="s" unicode="s" horiz-adv-x="768" 
d="M311 657q0 -33 25.5 -65t130 -87.5t153 -115t48.5 -135.5q0 -123 -103 -201t-243 -78q-112 0 -185.5 51t-73.5 119q0 40 25.5 67.5t63.5 27.5q37 0 57 -24.5t20 -55.5q0 -23 -12 -50t-12 -34q0 -56 123 -56q94 0 150.5 41.5t56.5 94.5q0 85 -158 161q-199 97 -199 246
q0 91 83 169.5t218 78.5q102 0 162.5 -38t60.5 -103q0 -37 -25.5 -61.5t-58.5 -24.5t-54 22.5t-21 55.5q0 14 7 36.5t7 36.5q0 31 -82 31q-76 0 -120 -31t-44 -78z" />
    <glyph glyph-name="t" unicode="t" horiz-adv-x="555" 
d="M461 1008l-47 -222h129l-11 -51h-131l-133 -563q-16 -63 -16 -90q0 -39 33 -39q80 0 176 240h41q-48 -151 -124 -229.5t-163 -78.5q-141 0 -141 144q0 41 24 145l111 471h-131l10 51h135l45 193q102 1 193 29z" />
    <glyph glyph-name="u" unicode="u" horiz-adv-x="1110" 
d="M973 786l-131 -567q-3 -5 -12 -47t-9 -70q0 -16 9.5 -30.5t23.5 -14.5q37 0 86.5 62.5t91.5 165.5h45q-58 -158 -138.5 -234t-162.5 -76q-64 0 -96.5 48.5t-32.5 109.5q0 19 8 66l-4 4q-155 -228 -323 -228q-71 0 -124.5 47.5t-53.5 127.5q0 28 8.5 65l15.5 70l105 456
h-158l12 45h168q76 0 123 6.5t61 6.5l-135 -580q-20 -75 -20 -115q0 -61 57 -61q58 0 161 93t154 310l80 340h191z" />
    <glyph glyph-name="v" unicode="v" horiz-adv-x="874" 
d="M76 514h-45q111 297 288 297q130 0 130 -127q0 -30 -29 -147l-82 -336q-16 -66 -16 -95q0 -28 20 -47.5t51 -19.5q87 0 180 100.5t142 247.5t49 207q0 26 -37 33q-102 16 -102 94q0 36 24 63t68 27q100 0 100 -139q0 -234 -137 -465.5t-336 -231.5q-85 0 -141 51t-56 124
q0 51 23 141l78 317q4 4 11 47t7 47q0 31 -28 31q-68 0 -162 -219z" />
    <glyph glyph-name="w" unicode="w" horiz-adv-x="1323" 
d="M772 795h186q-41 -189 -81.5 -355t-40.5 -262q0 -131 77 -131q102 0 204 208t102 345q0 24 -43 27q-89 3 -89 90q0 36 24.5 65t62.5 29q96 0 96 -141q0 -221 -126.5 -458t-266.5 -237q-82 0 -145.5 71.5t-63.5 211.5q0 67 18 170l-4 4q-100 -246 -191 -351.5t-194 -105.5
q-156 0 -156 146q0 53 29 168l78 311q20 85 20 111q0 32 -28 32q-81 0 -166 -208h-45q98 276 284 276q133 0 133 -137q0 -51 -14 -94l-88 -355q-1 -6 -13 -53t-12 -70q0 -59 43 -59q70 0 185 196t225 556z" />
    <glyph glyph-name="x" unicode="x" 
d="M162 485h-47q60 150 144.5 238t158.5 88q64 0 103.5 -51.5t66.5 -220.5q135 174 188.5 223t110.5 49q36 0 59 -24.5t23 -63.5t-25 -61.5t-51 -22.5q-35 0 -62.5 22.5t-37.5 22.5q-19 0 -31.5 -9.5t-66.5 -73.5t-95 -124q52 -270 70 -342t61 -72q34 0 81 55t93 158h47
q-64 -160 -145 -230.5t-152 -70.5q-96 0 -137.5 66.5t-68.5 245.5l-136 -172q-108 -140 -188 -140q-39 0 -67.5 28t-28.5 67q0 33 23.5 56.5t58.5 23.5q41 0 65 -27q21 -19 33 -19q24 0 34.5 9.5t76.5 85.5t116 149l-44 243q-19 114 -62 114q-67 0 -168 -220z" />
    <glyph glyph-name="y" unicode="y" horiz-adv-x="897" 
d="M414 -47l-168 608q-24 88 -35.5 112.5t-34.5 24.5q-56 0 -129 -211h-43q50 162 120 243t144 81q49 0 85.5 -35t70.5 -158l115 -419h4q21 66 110.5 294.5t123.5 273t83 44.5q78 0 78 -76q0 -38 -20.5 -61t-45.5 -23q-16 0 -34.5 12.5t-26.5 12.5q-38 0 -90 -129l-174 -432
q-85 -208 -243 -425.5t-363 -217.5q-62 0 -92.5 28.5t-30.5 63.5q0 29 20 49t53 20q68 0 95 -65q19 -41 39 -41q46 0 155 87.5t234 338.5z" />
    <glyph glyph-name="z" unicode="z" horiz-adv-x="768" 
d="M82 502l162 309q218 -98 356 -98q70 0 74 45q0 53 37 53q28 0 28 -25q0 -52 -194 -254l-203 -200q-33 -40 -86 -88l-47 -43l4 -4q46 12 78 12q104 0 248 -66q32 -12 47 -12q29 0 47 20.5t18 41.5q0 16 -28 20q-64 4 -64 59q0 32 22 51t48 19q71 0 71 -102
q0 -98 -83.5 -181.5t-159.5 -83.5q-52 0 -171.5 51.5t-148.5 51.5q-37 0 -37 -23l6 -34q0 -46 -40 -46q-37 0 -37 39q0 64 264.5 330t275.5 266l-4 4q-136 -20 -237 -20q-56 0 -140 20l-55 -112h-51z" />
    <glyph glyph-name="braceleft" unicode="{" horiz-adv-x="983" 
d="M803 -473v-35q-176 27 -275.5 141.5t-99.5 243.5q0 78 22.5 164t22.5 156q0 62 -55.5 126t-171.5 83v38q116 18 171.5 82.5t55.5 126.5q0 70 -22.5 156t-22.5 164q0 128 99.5 243t275.5 142v-37q-116 -25 -170.5 -89t-54.5 -138q0 -84 24 -166q21 -87 21 -158
q0 -98 -71 -191.5t-224 -148.5v-4q143 -53 219 -149t76 -197q0 -71 -21 -158q-24 -82 -24 -166q0 -75 54.5 -137t170.5 -92z" />
    <glyph glyph-name="bar" unicode="|" horiz-adv-x="1079" 
d="M485 1372h111v-1896h-111v1896z" />
    <glyph glyph-name="braceright" unicode="}" horiz-adv-x="983" 
d="M180 1323v35q176 -27 275.5 -141.5t99.5 -243.5q0 -78 -22.5 -164t-22.5 -156q0 -62 55.5 -126.5t171.5 -82.5v-38q-116 -18 -171.5 -82.5t-55.5 -126.5q0 -70 22.5 -156t22.5 -164q0 -128 -99.5 -243t-275.5 -142v37q116 25 171 89t55 138q0 84 -25 166q-21 87 -21 158
q0 98 71 191.5t224 148.5v4q-143 53 -219 148.5t-76 197.5q0 71 21 158q25 82 25 166q0 75 -55 137t-171 92z" />
    <glyph glyph-name="asciitilde" unicode="~" horiz-adv-x="1366" 
d="M1171 803h48q-5 -136 -76 -211.5t-172 -75.5q-56 0 -113 18.5t-238 92t-241 73.5q-149 0 -184 -182h-48q10 151 79.5 219t160.5 68q96 0 381 -121q150 -66 219 -66q72 0 123 46t61 139z" />
    <glyph glyph-name="Adieresis" unicode="&#xc4;" horiz-adv-x="1556" 
d="M993 444h-426l-319 -393h215l-10 -51h-447l10 51h164l1073 1321h50l-123 -1321h194l-10 -51h-623l9 51h200zM608 496h385l47 530l-4 4zM1333 1616q0 42 29.5 71.5t70.5 29.5t70.5 -29.5t29.5 -71.5t-29 -71t-71 -29t-71 29t-29 71zM987 1616q0 42 29.5 71.5t70.5 29.5
t70.5 -29.5t29.5 -71.5q0 -41 -29.5 -70.5t-70.5 -29.5t-70.5 29.5t-29.5 70.5z" />
    <glyph glyph-name="Aring" unicode="&#xc5;" horiz-adv-x="1556" 
d="M993 444h-426l-319 -393h215l-10 -51h-447l10 51h164l1073 1321h50l-123 -1321h194l-10 -51h-623l9 51h200zM608 496h385l47 530l-4 4zM1079 1618q0 72 50.5 122t121.5 50q70 0 120 -50.5t50 -121.5q0 -69 -50.5 -120.5t-119.5 -51.5q-71 0 -121.5 51t-50.5 121z
M1374 1618q0 52 -36 88.5t-87 36.5q-52 0 -88.5 -36.5t-36.5 -88.5t36.5 -88t88.5 -36q51 0 87 36.5t36 87.5z" />
    <glyph glyph-name="Ccedilla" unicode="&#xc7;" horiz-adv-x="1323" 
d="M717 -31l-21 -73q75 3 116.5 -33.5t41.5 -83.5q0 -61 -57 -109.5t-158 -48.5q-66 0 -131 19l10 43q65 -9 92 -9q129 0 129 72q0 53 -75 53l-46 -4q39 115 52 174q-217 21 -353.5 168t-136.5 352q0 226 117 430.5t304.5 328.5t354.5 124q171 0 263 -131q43 34 88 82h41
l-76 -375h-53q-13 373 -265 373q-162 0 -280.5 -157t-179 -413t-60.5 -409q0 -160 82.5 -241t210.5 -81q114 0 242 79.5t233 287.5h47l-96 -387h-45q-20 32 -57 80q-172 -111 -334 -111z" />
    <glyph glyph-name="Eacute" unicode="&#xc9;" horiz-adv-x="1430" 
d="M758 1290l-121 -563h104q123 0 183.5 42.5t107.5 193.5h51l-120 -557h-52q11 55 11 110q0 49 -27 93.5t-59.5 55.5t-102.5 11h-106l-133 -625h352q124 0 183.5 16.5t134 109.5t149.5 245h51l-125 -422h-1173l10 51h184l262 1239h-207l11 51h1130l-61 -340h-45
q2 140 -29 201t-87 74.5t-177 13.5h-299zM835 1448l-20 29l225 182q4 2 63 50.5t105 48.5q39 0 61.5 -28t22.5 -56q0 -35 -33.5 -63t-156.5 -70z" />
    <glyph glyph-name="Ntilde" unicode="&#xd1;" horiz-adv-x="1665" 
d="M848 1341l446 -987h4l199 936h-184l12 51h399l-10 -51h-166l-278 -1306h-49l-594 1306h-17l-264 -1239h211l-10 -51h-465l12 51h199l264 1239h-195l11 51h475zM1381 1726h40q-4 -114 -61.5 -166.5t-124.5 -52.5q-61 0 -180.5 43t-157.5 43q-76 0 -90 -86h-41
q12 221 201 221q52 0 173 -44t155 -44q61 0 86 86z" />
    <glyph glyph-name="Odieresis" unicode="&#xd6;" horiz-adv-x="1323" 
d="M125 479q0 208 108 418.5t276.5 342.5t319.5 132q207 0 333 -156.5t126 -384.5q0 -330 -214 -596t-486 -266q-201 0 -332 158.5t-131 351.5zM1065 1083q0 240 -227 240q-132 0 -222.5 -103t-175 -433.5t-84.5 -532.5q0 -236 230 -236q134 0 219 92.5t172.5 456.5
t87.5 516zM1012 1616q0 42 29.5 71.5t70.5 29.5t70.5 -29.5t29.5 -71.5t-29 -71t-71 -29t-71 29t-29 71zM666 1616q0 42 29.5 71.5t70.5 29.5t70.5 -29.5t29.5 -71.5q0 -41 -29.5 -70.5t-70.5 -29.5t-70.5 29.5t-29.5 70.5z" />
    <glyph glyph-name="Udieresis" unicode="&#xdc;" horiz-adv-x="1665" 
d="M776 1290l-170 -796q-3 -1 -17 -79t-14 -136q0 -254 299 -254q173 0 286 101.5t167 381.5l152 782h-189l10 51h418l-10 -51h-176l-162 -827q-50 -262 -176.5 -378t-349.5 -116q-240 0 -367 103.5t-127 240.5q0 70 31 213l164 764h-193l10 51h605l-11 -51h-180zM1177 1616
q0 42 29.5 71.5t70.5 29.5t70.5 -29.5t29.5 -71.5t-29 -71t-71 -29t-71 29t-29 71zM831 1616q0 42 29.5 71.5t70.5 29.5t70.5 -29.5t29.5 -71.5q0 -41 -29.5 -70.5t-70.5 -29.5t-70.5 29.5t-29.5 70.5z" />
    <glyph glyph-name="aacute" unicode="&#xe1;" 
d="M899 793l-135 -570q-19 -77 -19 -121q0 -41 29 -41q24 0 68 57.5t90 170.5h41q-54 -162 -127 -238t-141 -76q-124 0 -134 185h-4q-89 -185 -248 -185q-98 0 -168.5 92t-70.5 224q0 206 144.5 363t287.5 157q136 0 164 -149h4l29 131h190zM647 584q0 78 -33.5 130
t-93.5 52q-67 0 -109 -62t-96.5 -291.5t-54.5 -287.5q0 -98 76 -98q55 0 112.5 43t128 203t70.5 311zM524 958l-20 29l225 182q4 2 63 50.5t105 48.5q39 0 61.5 -28t22.5 -56q0 -35 -33.5 -63t-156.5 -70z" />
    <glyph glyph-name="agrave" unicode="&#xe0;" 
d="M899 793l-135 -570q-19 -77 -19 -121q0 -41 29 -41q24 0 68 57.5t90 170.5h41q-54 -162 -127 -238t-141 -76q-124 0 -134 185h-4q-89 -185 -248 -185q-98 0 -168.5 92t-70.5 224q0 206 144.5 363t287.5 157q136 0 164 -149h4l29 131h190zM647 584q0 78 -33.5 130
t-93.5 52q-67 0 -109 -62t-96.5 -291.5t-54.5 -287.5q0 -98 76 -98q55 0 112.5 43t128 203t70.5 311zM807 940l-33 -16l-204 200q-119 119 -119 168q0 33 27.5 57.5t54.5 24.5q60 0 147 -176z" />
    <glyph glyph-name="acircumflex" unicode="&#xe2;" 
d="M899 793l-135 -570q-19 -77 -19 -121q0 -41 29 -41q24 0 68 57.5t90 170.5h41q-54 -162 -127 -238t-141 -76q-124 0 -134 185h-4q-89 -185 -248 -185q-98 0 -168.5 92t-70.5 224q0 206 144.5 363t287.5 157q136 0 164 -149h4l29 131h190zM647 584q0 78 -33.5 130
t-93.5 52q-67 0 -109 -62t-96.5 -291.5t-54.5 -287.5q0 -98 76 -98q55 0 112.5 43t128 203t70.5 311zM647 1286h90l203 -317h-43l-215 170l-280 -170h-50z" />
    <glyph glyph-name="adieresis" unicode="&#xe4;" 
d="M899 793l-135 -570q-19 -77 -19 -121q0 -41 29 -41q24 0 68 57.5t90 170.5h41q-54 -162 -127 -238t-141 -76q-124 0 -134 185h-4q-89 -185 -248 -185q-98 0 -168.5 92t-70.5 224q0 206 144.5 363t287.5 157q136 0 164 -149h4l29 131h190zM647 584q0 78 -33.5 130
t-93.5 52q-67 0 -109 -62t-96.5 -291.5t-54.5 -287.5q0 -98 76 -98q55 0 112.5 43t128 203t70.5 311zM749 1126q0 42 29.5 71.5t70.5 29.5t70.5 -29.5t29.5 -71.5t-29 -71t-71 -29t-71 29t-29 71zM403 1126q0 42 29.5 71.5t70.5 29.5t70.5 -29.5t29.5 -71.5
q0 -41 -29.5 -70.5t-70.5 -29.5t-70.5 29.5t-29.5 70.5z" />
    <glyph glyph-name="atilde" unicode="&#xe3;" 
d="M899 793l-135 -570q-19 -77 -19 -121q0 -41 29 -41q24 0 68 57.5t90 170.5h41q-54 -162 -127 -238t-141 -76q-124 0 -134 185h-4q-89 -185 -248 -185q-98 0 -168.5 92t-70.5 224q0 206 144.5 363t287.5 157q136 0 164 -149h4l29 131h190zM647 584q0 78 -33.5 130
t-93.5 52q-67 0 -109 -62t-96.5 -291.5t-54.5 -287.5q0 -98 76 -98q55 0 112.5 43t128 203t70.5 311zM953 1237h40q-4 -114 -61.5 -166.5t-124.5 -52.5q-61 0 -180.5 43t-157.5 43q-76 0 -90 -86h-41q12 221 201 221q52 0 173 -44t155 -44q61 0 86 86z" />
    <glyph glyph-name="aring" unicode="&#xe5;" 
d="M899 793l-135 -570q-19 -77 -19 -121q0 -41 29 -41q24 0 68 57.5t90 170.5h41q-54 -162 -127 -238t-141 -76q-124 0 -134 185h-4q-89 -185 -248 -185q-98 0 -168.5 92t-70.5 224q0 206 144.5 363t287.5 157q136 0 164 -149h4l29 131h190zM647 584q0 78 -33.5 130
t-93.5 52q-67 0 -109 -62t-96.5 -291.5t-54.5 -287.5q0 -98 76 -98q55 0 112.5 43t128 203t70.5 311zM496 1128q0 72 50.5 122t121.5 50q70 0 120 -50.5t50 -121.5q0 -69 -50.5 -120.5t-119.5 -51.5q-71 0 -121.5 51t-50.5 121zM791 1128q0 52 -36 88.5t-87 36.5
q-52 0 -88.5 -36.5t-36.5 -88.5t36.5 -88t88.5 -36q51 0 87 36.5t36 87.5z" />
    <glyph glyph-name="ccedilla" unicode="&#xe7;" horiz-adv-x="768" 
d="M180 -360l8 43q68 -9 95 -9q129 0 129 72q0 53 -76 53l-45 -4q40 124 51 182q-121 11 -190.5 112.5t-69.5 225.5q0 181 139.5 338.5t341.5 157.5q80 0 132.5 -43.5t52.5 -97.5q0 -49 -29.5 -78t-67.5 -29q-36 0 -64 24.5t-28 67.5q0 50 20.5 70t20.5 27q0 14 -61 14
q-63 0 -113 -48t-104 -274.5t-54 -281.5q0 -62 33 -102t82 -40q139 0 270 224h45q-123 -250 -309 -267q-5 -27 -22 -81q75 3 116 -33.5t41 -83.5q0 -67 -61 -112.5t-129 -45.5q-81 0 -154 19z" />
    <glyph glyph-name="eacute" unicode="&#xe9;" horiz-adv-x="768" 
d="M297 346q-41 -184 -41 -219q0 -42 31 -74.5t88 -32.5q183 0 309 244h43q-67 -148 -163 -218.5t-197 -70.5q-124 0 -205.5 102.5t-81.5 237.5q0 179 142.5 337.5t301.5 158.5q103 0 159 -63.5t56 -139.5q0 -78 -76 -168.5t-366 -93.5zM307 391q140 3 186.5 38.5
t75.5 114.5t29 128q0 94 -84 94q-79 0 -121 -72t-86 -303zM405 958l-20 29l225 182q4 2 63 50.5t105 48.5q39 0 61.5 -28t22.5 -56q0 -35 -33.5 -63t-156.5 -70z" />
    <glyph glyph-name="egrave" unicode="&#xe8;" horiz-adv-x="768" 
d="M297 346q-41 -184 -41 -219q0 -42 31 -74.5t88 -32.5q183 0 309 244h43q-67 -148 -163 -218.5t-197 -70.5q-124 0 -205.5 102.5t-81.5 237.5q0 179 142.5 337.5t301.5 158.5q103 0 159 -63.5t56 -139.5q0 -78 -76 -168.5t-366 -93.5zM307 391q140 3 186.5 38.5
t75.5 114.5t29 128q0 94 -84 94q-79 0 -121 -72t-86 -303zM688 940l-33 -16l-204 200q-119 119 -119 168q0 33 27.5 57.5t54.5 24.5q60 0 147 -176z" />
    <glyph glyph-name="ecircumflex" unicode="&#xea;" horiz-adv-x="768" 
d="M297 346q-41 -184 -41 -219q0 -42 31 -74.5t88 -32.5q183 0 309 244h43q-67 -148 -163 -218.5t-197 -70.5q-124 0 -205.5 102.5t-81.5 237.5q0 179 142.5 337.5t301.5 158.5q103 0 159 -63.5t56 -139.5q0 -78 -76 -168.5t-366 -93.5zM307 391q140 3 186.5 38.5
t75.5 114.5t29 128q0 94 -84 94q-79 0 -121 -72t-86 -303zM528 1286h90l203 -317h-43l-215 170l-280 -170h-50z" />
    <glyph glyph-name="edieresis" unicode="&#xeb;" horiz-adv-x="768" 
d="M297 346q-41 -184 -41 -219q0 -42 31 -74.5t88 -32.5q183 0 309 244h43q-67 -148 -163 -218.5t-197 -70.5q-124 0 -205.5 102.5t-81.5 237.5q0 179 142.5 337.5t301.5 158.5q103 0 159 -63.5t56 -139.5q0 -78 -76 -168.5t-366 -93.5zM307 391q140 3 186.5 38.5
t75.5 114.5t29 128q0 94 -84 94q-79 0 -121 -72t-86 -303zM631 1126q0 42 29.5 71.5t70.5 29.5t70.5 -29.5t29.5 -71.5t-29 -71t-71 -29t-71 29t-29 71zM285 1126q0 42 29.5 71.5t70.5 29.5t70.5 -29.5t29.5 -71.5q0 -41 -29.5 -70.5t-70.5 -29.5t-70.5 29.5t-29.5 70.5z
" />
    <glyph glyph-name="iacute" unicode="&#xed;" horiz-adv-x="662" 
d="M496 805l-150 -617q-16 -76 -16 -98q0 -37 37 -37q46 0 106.5 66.5t118.5 197.5h45q-131 -342 -358 -342q-132 0 -132 138q0 39 31 166l111 456h-189l11 51h116q145 0 269 19zM352 958l-20 29l225 182q4 2 63 50.5t105 48.5q39 0 61.5 -28t22.5 -56q0 -35 -33.5 -63
t-156.5 -70z" />
    <glyph glyph-name="igrave" unicode="&#xec;" horiz-adv-x="662" 
d="M496 805l-150 -617q-16 -76 -16 -98q0 -37 37 -37q46 0 106.5 66.5t118.5 197.5h45q-131 -342 -358 -342q-132 0 -132 138q0 39 31 166l111 456h-189l11 51h116q145 0 269 19zM635 940l-33 -16l-204 200q-119 119 -119 168q0 33 27.5 57.5t54.5 24.5q60 0 147 -176z" />
    <glyph glyph-name="icircumflex" unicode="&#xee;" horiz-adv-x="662" 
d="M496 805l-150 -617q-16 -76 -16 -98q0 -37 37 -37q46 0 106.5 66.5t118.5 197.5h45q-131 -342 -358 -342q-132 0 -132 138q0 39 31 166l111 456h-189l11 51h116q145 0 269 19zM475 1286h90l203 -317h-43l-215 170l-280 -170h-50z" />
    <glyph glyph-name="idieresis" unicode="&#xef;" horiz-adv-x="662" 
d="M496 805l-150 -617q-16 -76 -16 -98q0 -37 37 -37q46 0 106.5 66.5t118.5 197.5h45q-131 -342 -358 -342q-132 0 -132 138q0 39 31 166l111 456h-189l11 51h116q145 0 269 19zM577 1126q0 42 29.5 71.5t70.5 29.5t70.5 -29.5t29.5 -71.5t-29 -71t-71 -29t-71 29t-29 71z
M231 1126q0 42 29.5 71.5t70.5 29.5t70.5 -29.5t29.5 -71.5q0 -41 -29.5 -70.5t-70.5 -29.5t-70.5 29.5t-29.5 70.5z" />
    <glyph glyph-name="ntilde" unicode="&#xf1;" horiz-adv-x="1110" 
d="M483 803l-51 -217l4 -4q169 229 348 229q66 0 109 -39.5t43 -105.5q0 -27 -16 -95l-91 -370q-14 -58 -14 -86q0 -49 33 -49q89 0 180 219h47q-58 -157 -141.5 -229t-169.5 -72q-137 0 -137 129q0 44 22 133l84 335q1 6 8 32t7 55q0 67 -54 67q-59 0 -167.5 -101
t-174.5 -382l-59 -252h-189l172 735h-172l11 51h135q139 0 233 17zM1006 1237h40q-4 -114 -61.5 -166.5t-124.5 -52.5q-61 0 -180.5 43t-157.5 43q-76 0 -90 -86h-41q12 221 201 221q52 0 173 -44t155 -44q61 0 86 86z" />
    <glyph glyph-name="oacute" unicode="&#xf3;" horiz-adv-x="874" 
d="M76 319q0 197 140 344.5t312 147.5q138 0 213.5 -99t75.5 -237q0 -193 -142.5 -346.5t-307.5 -153.5q-132 0 -211.5 97t-79.5 247zM633 641q0 55 -29.5 90t-83.5 35q-81 0 -116.5 -66t-89.5 -267.5t-54 -293.5q0 -58 32.5 -88.5t76.5 -30.5q125 0 194.5 272.5t69.5 348.5
zM458 958l-20 29l225 182q4 2 63 50.5t105 48.5q39 0 61.5 -28t22.5 -56q0 -35 -33.5 -63t-156.5 -70z" />
    <glyph glyph-name="ograve" unicode="&#xf2;" horiz-adv-x="874" 
d="M76 319q0 197 140 344.5t312 147.5q138 0 213.5 -99t75.5 -237q0 -193 -142.5 -346.5t-307.5 -153.5q-132 0 -211.5 97t-79.5 247zM633 641q0 55 -29.5 90t-83.5 35q-81 0 -116.5 -66t-89.5 -267.5t-54 -293.5q0 -58 32.5 -88.5t76.5 -30.5q125 0 194.5 272.5t69.5 348.5
zM741 940l-33 -16l-204 200q-119 119 -119 168q0 33 27.5 57.5t54.5 24.5q60 0 147 -176z" />
    <glyph glyph-name="ocircumflex" unicode="&#xf4;" horiz-adv-x="874" 
d="M76 319q0 197 140 344.5t312 147.5q138 0 213.5 -99t75.5 -237q0 -193 -142.5 -346.5t-307.5 -153.5q-132 0 -211.5 97t-79.5 247zM633 641q0 55 -29.5 90t-83.5 35q-81 0 -116.5 -66t-89.5 -267.5t-54 -293.5q0 -58 32.5 -88.5t76.5 -30.5q125 0 194.5 272.5t69.5 348.5
zM582 1286h90l203 -317h-43l-215 170l-280 -170h-50z" />
    <glyph glyph-name="odieresis" unicode="&#xf6;" horiz-adv-x="874" 
d="M76 319q0 197 140 344.5t312 147.5q138 0 213.5 -99t75.5 -237q0 -193 -142.5 -346.5t-307.5 -153.5q-132 0 -211.5 97t-79.5 247zM633 641q0 55 -29.5 90t-83.5 35q-81 0 -116.5 -66t-89.5 -267.5t-54 -293.5q0 -58 32.5 -88.5t76.5 -30.5q125 0 194.5 272.5t69.5 348.5
zM684 1126q0 42 29.5 71.5t70.5 29.5t70.5 -29.5t29.5 -71.5t-29 -71t-71 -29t-71 29t-29 71zM338 1126q0 42 29.5 71.5t70.5 29.5t70.5 -29.5t29.5 -71.5q0 -41 -29.5 -70.5t-70.5 -29.5t-70.5 29.5t-29.5 70.5z" />
    <glyph glyph-name="otilde" unicode="&#xf5;" horiz-adv-x="874" 
d="M76 319q0 197 140 344.5t312 147.5q138 0 213.5 -99t75.5 -237q0 -193 -142.5 -346.5t-307.5 -153.5q-132 0 -211.5 97t-79.5 247zM633 641q0 55 -29.5 90t-83.5 35q-81 0 -116.5 -66t-89.5 -267.5t-54 -293.5q0 -58 32.5 -88.5t76.5 -30.5q125 0 194.5 272.5t69.5 348.5
zM887 1237h40q-4 -114 -61.5 -166.5t-124.5 -52.5q-61 0 -180.5 43t-157.5 43q-76 0 -90 -86h-41q12 221 201 221q52 0 173 -44t155 -44q61 0 86 86z" />
    <glyph glyph-name="uacute" unicode="&#xfa;" horiz-adv-x="1110" 
d="M973 786l-131 -567q-3 -5 -12 -47t-9 -70q0 -16 9.5 -30.5t23.5 -14.5q37 0 86.5 62.5t91.5 165.5h45q-58 -158 -138.5 -234t-162.5 -76q-64 0 -96.5 48.5t-32.5 109.5q0 19 8 66l-4 4q-155 -228 -323 -228q-71 0 -124.5 47.5t-53.5 127.5q0 28 8.5 65l15.5 70l105 456
h-158l12 45h168q76 0 123 6.5t61 6.5l-135 -580q-20 -75 -20 -115q0 -61 57 -61q58 0 161 93t154 310l80 340h191zM577 958l-20 29l225 182q4 2 63 50.5t105 48.5q39 0 61.5 -28t22.5 -56q0 -35 -33.5 -63t-156.5 -70z" />
    <glyph glyph-name="ugrave" unicode="&#xf9;" horiz-adv-x="1110" 
d="M973 786l-131 -567q-3 -5 -12 -47t-9 -70q0 -16 9.5 -30.5t23.5 -14.5q37 0 86.5 62.5t91.5 165.5h45q-58 -158 -138.5 -234t-162.5 -76q-64 0 -96.5 48.5t-32.5 109.5q0 19 8 66l-4 4q-155 -228 -323 -228q-71 0 -124.5 47.5t-53.5 127.5q0 28 8.5 65l15.5 70l105 456
h-158l12 45h168q76 0 123 6.5t61 6.5l-135 -580q-20 -75 -20 -115q0 -61 57 -61q58 0 161 93t154 310l80 340h191zM860 940l-33 -16l-204 200q-119 119 -119 168q0 33 27.5 57.5t54.5 24.5q60 0 147 -176z" />
    <glyph glyph-name="ucircumflex" unicode="&#xfb;" horiz-adv-x="1110" 
d="M973 786l-131 -567q-3 -5 -12 -47t-9 -70q0 -16 9.5 -30.5t23.5 -14.5q37 0 86.5 62.5t91.5 165.5h45q-58 -158 -138.5 -234t-162.5 -76q-64 0 -96.5 48.5t-32.5 109.5q0 19 8 66l-4 4q-155 -228 -323 -228q-71 0 -124.5 47.5t-53.5 127.5q0 28 8.5 65l15.5 70l105 456
h-158l12 45h168q76 0 123 6.5t61 6.5l-135 -580q-20 -75 -20 -115q0 -61 57 -61q58 0 161 93t154 310l80 340h191zM701 1286h90l203 -317h-43l-215 170l-280 -170h-50z" />
    <glyph glyph-name="udieresis" unicode="&#xfc;" horiz-adv-x="1110" 
d="M973 786l-131 -567q-3 -5 -12 -47t-9 -70q0 -16 9.5 -30.5t23.5 -14.5q37 0 86.5 62.5t91.5 165.5h45q-58 -158 -138.5 -234t-162.5 -76q-64 0 -96.5 48.5t-32.5 109.5q0 19 8 66l-4 4q-155 -228 -323 -228q-71 0 -124.5 47.5t-53.5 127.5q0 28 8.5 65l15.5 70l105 456
h-158l12 45h168q76 0 123 6.5t61 6.5l-135 -580q-20 -75 -20 -115q0 -61 57 -61q58 0 161 93t154 310l80 340h191zM803 1126q0 42 29.5 71.5t70.5 29.5t70.5 -29.5t29.5 -71.5t-29 -71t-71 -29t-71 29t-29 71zM457 1126q0 42 29.5 71.5t70.5 29.5t70.5 -29.5t29.5 -71.5
q0 -41 -29.5 -70.5t-70.5 -29.5t-70.5 29.5t-29.5 70.5z" />
    <glyph glyph-name="dagger" unicode="&#x2020;" horiz-adv-x="1110" 
d="M283 -463h-43q120 356 175.5 627t55.5 289l-4 145q126 121 160 219q-52 0 -141 -33.5t-134 -33.5t-77.5 24t-32.5 66q0 32 32 56t78 24q51 0 137 -31.5t152 -36.5q16 60 16 84l-8 158q0 221 121 221q37 0 62.5 -28.5t25.5 -67.5q0 -83 -82.5 -199.5t-97.5 -167.5
q57 1 145 32t129 31q111 0 111 -84q0 -40 -31.5 -60.5t-73.5 -20.5q-46 0 -140.5 33.5t-147.5 33.5q-8 -73 -8 -88q0 -50 45 -131q-209 -333 -408 -1006z" />
    <glyph glyph-name="degree" unicode="&#xb0;" horiz-adv-x="819" 
d="M213 1065q0 127 90.5 217t216.5 90t216.5 -90.5t90.5 -216.5q0 -127 -90 -217t-217 -90t-217 90t-90 217zM743 1065q0 92 -66 157.5t-157 65.5t-157 -65t-66 -158q0 -92 65.5 -157.5t157.5 -65.5q91 0 157 66t66 157z" />
    <glyph glyph-name="cent" unicode="&#xa2;" 
d="M645 768l-176 -741l39 -4q27 0 105.5 47t146.5 174h47q-134 -279 -348 -267l-86 -346h-43l88 353q-98 16 -164 111.5t-66 221.5q0 159 117 310t305 180l105 418h45l-105 -414q92 2 146.5 -42.5t54.5 -98.5q0 -49 -30.5 -78t-67.5 -29q-35 0 -63.5 24.5t-28.5 67.5
q0 47 20.5 68.5t20.5 28.5q0 23 -62 16zM430 39l170 719q-29 -4 -73.5 -57t-98 -253.5t-53.5 -287.5q0 -63 55 -121z" />
    <glyph glyph-name="sterling" unicode="&#xa3;" 
d="M526 621h250l-18 -52h-248q-56 -246 -113 -354q165 -59 267 -59q148 0 200 178h39q-111 -359 -295 -359q-87 0 -144 73.5t-91 103.5q-104 -177 -207 -177q-44 0 -73.5 31t-29.5 80q0 74 61 116t118 42l71 -4q9 88 9 172q0 97 6 157h-236l14 52h230q71 338 188.5 514
t257.5 176q77 0 115.5 -50.5t38.5 -123.5q0 -69 -38 -120.5t-91 -51.5q-40 0 -65 29.5t-25 72.5q0 45 27.5 73.5t68.5 28.5q11 0 28.5 -6t18.5 -6q23 0 23 35q0 36 -30.5 60t-70.5 24q-89 0 -144 -76t-74.5 -285t-37.5 -294zM305 197l-63 6q-53 0 -94.5 -36.5t-41.5 -86.5
q0 -64 60 -64q96 0 139 181z" />
    <glyph glyph-name="section" unicode="&#xa7;" horiz-adv-x="1217" 
d="M551 35l-90 61q-201 135 -201 338q0 205 232 400q-23 74 -23 102q0 155 117.5 276t279.5 121q107 0 182.5 -68.5t75.5 -177.5q0 -80 -42.5 -130t-96.5 -50q-38 0 -61 23.5t-23 56.5q0 39 33.5 68.5t87 29t53.5 41.5q0 57 -54.5 111.5t-158.5 54.5q-118 0 -207.5 -82
t-89.5 -182q0 -57 28 -105.5t165.5 -143t177 -168.5t39.5 -152q0 -224 -242 -412q27 -78 27 -129q0 -155 -127.5 -277t-272.5 -122q-118 0 -193 78t-75 172q0 70 44.5 121t96.5 51q28 0 49 -23.5t21 -58.5q0 -34 -24.5 -64t-45.5 -35.5t-54.5 -19.5t-33.5 -33
q0 -40 63 -93.5t146 -53.5q118 0 215 85.5t97 190.5q0 121 -115 199zM713 80q190 161 190 282q0 134 -183.5 252.5t-213.5 188.5q-164 -146 -164 -291q0 -127 165.5 -245t205.5 -187z" />
    <glyph glyph-name="bullet" unicode="&#x2022;" horiz-adv-x="717" 
d="M125 678q0 103 74.5 176.5t177.5 73.5t176.5 -73.5t73.5 -176.5q0 -104 -73.5 -178t-176.5 -74q-104 0 -178 74t-74 178z" />
    <glyph glyph-name="paragraph" unicode="&#xb6;" horiz-adv-x="928" 
d="M801 1286v-1743h-74v1743h-186v-1743h-74v1045q-479 3 -479 379q0 171 118.5 272.5t331.5 101.5h496v-55h-133z" />
    <glyph glyph-name="germandbls" unicode="&#xdf;" horiz-adv-x="1110" 
d="M551 707l8 45q121 3 179 29t104.5 128t46.5 221q0 191 -146 191q-112 0 -177.5 -137.5t-149.5 -585.5q-107 -600 -228.5 -858t-310.5 -258q-68 0 -118 33.5t-50 85.5q0 41 24.5 67.5t61.5 26.5q34 0 57 -25.5t23 -52.5q0 -24 -18.5 -51.5t-18.5 -30.5q0 -14 43 -14
q74 0 118 64.5t69.5 178.5t111.5 631t229.5 744t340.5 227q132 0 230.5 -89t98.5 -220q0 -123 -95 -215.5t-275 -110.5v-4q288 -84 288 -348q0 -167 -117.5 -285.5t-265.5 -118.5q-91 0 -149.5 49.5t-58.5 112.5q0 46 28.5 81.5t69.5 35.5q30 0 56 -21.5t26 -58.5
q0 -76 -72 -94q-22 0 -22 -12q0 -14 27 -31t67 -17q52 0 93.5 44t82.5 168.5t41 261.5q0 134 -71 174t-181 39z" />
    <glyph glyph-name="registered" unicode="&#xae;" horiz-adv-x="1556" 
d="M70 678q0 293 208 500.5t500 207.5t500.5 -207.5t208.5 -500.5q0 -292 -208.5 -500.5t-500.5 -208.5t-500 208.5t-208 500.5zM1425 678q0 268 -190 457.5t-457 189.5q-266 0 -456.5 -189.5t-190.5 -457.5t190 -457.5t457 -189.5q268 0 457.5 189.5t189.5 457.5zM385 1114
h387q135 0 216 -62.5t81 -160.5q0 -168 -223 -223l211 -297q64 -91 121 -88v-35h-185l-295 405h-75v-235q0 -94 20.5 -114.5t97.5 -20.5v-35h-366v35q72 0 88 26.5t16 110.5v522q0 85 -14 110.5t-80 26.5v35zM623 1055v-359h30q116 0 185 46.5t69 136.5q0 80 -55.5 135
t-144.5 55q-43 0 -84 -14z" />
    <glyph glyph-name="copyright" unicode="&#xa9;" horiz-adv-x="1556" 
d="M70 678q0 293 208 500.5t500 207.5t500.5 -207.5t208.5 -500.5q0 -292 -208.5 -500.5t-500.5 -208.5t-500 208.5t-208 500.5zM1425 678q0 268 -190 457.5t-457 189.5q-266 0 -456.5 -189.5t-190.5 -457.5t190 -457.5t457 -189.5q268 0 457.5 189.5t189.5 457.5z
M1128 1135l21 -281h-39q-71 236 -303 236q-146 0 -234 -104.5t-88 -285.5q0 -196 85 -303.5t247 -107.5q196 0 311 162l37 -21q-137 -203 -383 -203q-200 0 -331.5 131.5t-131.5 313.5q0 191 141 327t359 136q74 0 139.5 -22.5t81.5 -22.5q32 0 50 45h38z" />
    <glyph glyph-name="trademark" unicode="&#x2122;" horiz-adv-x="2007" 
d="M59 1341h727l23 -200h-35q-6 59 -45.5 100t-148.5 41h-74v-580q0 -81 18.5 -104.5t87.5 -28.5v-34h-374v34q58 6 79 22.5t21 108.5v582h-76q-92 0 -134.5 -30.5t-55.5 -110.5h-35zM1163 1341l275 -571l264 571h278v-36q-73 -2 -91.5 -25.5t-18.5 -110.5v-467
q0 -83 17.5 -105.5t92.5 -27.5v-34h-397v34q77 3 98 27.5t21 103.5v492h-4l-303 -657h-33l-303 649h-4v-482q0 -73 15 -103t79 -30h35v-34h-305v34q73 2 92.5 26t19.5 105v467q0 86 -17 112t-95 26v36h284z" />
    <glyph glyph-name="acute" unicode="&#xb4;" horiz-adv-x="682" 
d="M362 958l-20 29l225 182q4 2 63 50.5t105 48.5q39 0 61.5 -28t22.5 -56q0 -35 -33.5 -63t-156.5 -70z" />
    <glyph glyph-name="dieresis" unicode="&#xa8;" horiz-adv-x="682" 
d="M588 1126q0 42 29.5 71.5t70.5 29.5t70.5 -29.5t29.5 -71.5t-29 -71t-71 -29t-71 29t-29 71zM242 1126q0 42 29.5 71.5t70.5 29.5t70.5 -29.5t29.5 -71.5q0 -41 -29.5 -70.5t-70.5 -29.5t-70.5 29.5t-29.5 70.5z" />
    <glyph glyph-name="notequal" unicode="&#x2260;" horiz-adv-x="1124" 
d="M1106 279h-621l-184 -330l-100 57l151 273h-321v112h385l157 285h-542v112h606l186 336l101 -57l-156 -279h338v-112h-399l-160 -285h559v-112z" />
    <glyph glyph-name="AE" unicode="&#xc6;" horiz-adv-x="1985" 
d="M819 1341h1118l-59 -344h-51q2 31 2 58q0 110 -33.5 161t-83.5 62.5t-137 11.5h-246l-121 -569h49q134 0 197 43.5t105 196.5h51l-125 -576h-49q12 73 12 109q0 78 -37.5 127t-153.5 49h-59l-131 -619h289q136 0 198 42.5t124.5 132.5t109.5 190h51l-123 -416h-1059
l11 51h163l80 379h-465l-286 -379h192l-10 -51h-401l10 51h143l942 1239h-227zM1090 1286l-605 -805h439l170 801z" />
    <glyph glyph-name="Oslash" unicode="&#xd8;" horiz-adv-x="1323" 
d="M1157 1223l135 157l39 -32l-143 -166q100 -148 100 -346q0 -338 -214 -602.5t-486 -264.5q-189 0 -318 142l-139 -162l-39 33l146 168q-113 151 -113 329q0 320 231 606.5t482 286.5q195 0 319 -149zM362 291l703 823q-18 209 -225 209q-141 0 -226.5 -105.5
t-166.5 -406.5t-89 -516zM1061 1036l-703 -823q21 -195 226 -195q120 0 203.5 72t166 374.5t111.5 567.5z" />
    <glyph glyph-name="infinity" unicode="&#x221e;" horiz-adv-x="1460" 
d="M653 668q71 169 159 222.5t212 53.5q161 0 272 -116.5t111 -301.5q0 -186 -111.5 -303t-238.5 -117q-95 0 -170.5 63t-165.5 224q-117 -233 -324 -233q-149 0 -246.5 104.5t-97.5 263.5q0 157 89 262t218 105q80 0 149 -42t144 -185zM750 465q64 -138 134.5 -201
t176.5 -63q126 0 207.5 91t81.5 234q0 140 -84 240t-199 100q-55 0 -97.5 -21.5t-74.5 -62t-64 -116.5zM614 557l11 33q-96 215 -267 215q-110 0 -179.5 -76.5t-69.5 -198.5q0 -123 66.5 -207.5t162.5 -84.5q82 0 149.5 65t126.5 254z" />
    <glyph glyph-name="plusminus" unicode="&#xb1;" horiz-adv-x="1366" 
d="M141 805h488v485h106v-485h488v-107h-488v-485h-106v485h-488v107zM141 109h1082v-109h-1082v109z" />
    <glyph glyph-name="lessequal" unicode="&#x2264;" horiz-adv-x="1124" 
d="M1077 240l-1018 471v127l1018 471v-127l-887 -408l887 -407v-127zM1077 0h-1018v112h1018v-112z" />
    <glyph glyph-name="greaterequal" unicode="&#x2265;" horiz-adv-x="1124" 
d="M1077 711l-1018 -471v127l887 407l-887 408v127l1018 -471v-127zM1077 0h-1018v112h1018v-112z" />
    <glyph glyph-name="yen" unicode="&#xa5;" horiz-adv-x="1665" 
d="M756 623l-332 667h-170l10 51h623l-10 -51h-199l305 -606l516 606h-196l12 51h426l-12 -51h-162l-557 -659l-2 -8h442l-12 -52h-441l-43 -198h439l-11 -51h-438l-57 -271h192l-10 -51h-623l13 51h192l58 271h-439l11 51h438l43 198h-438l12 52h420z" />
    <glyph glyph-name="mu" unicode="&#xb5;" horiz-adv-x="1024" 
d="M248 786h188l-137 -469q-28 -90 -28 -165q0 -74 81 -74q60 0 139 77.5t164 356.5l84 274h189l-142 -481q-24 -78 -24 -149q0 -82 49 -82q66 0 131 141h43q-81 -240 -254 -240q-54 0 -94.5 37.5t-40.5 112.5q0 9 10 74l-4 4q-126 -228 -319 -228q-128 0 -160 78
q-41 -139 -52 -338q-5 -95 -37 -125t-83 -30q-84 0 -84 74q0 34 73.5 190t118.5 311z" />
    <glyph glyph-name="partialdiff" unicode="&#x2202;" horiz-adv-x="1012" 
d="M295 1120h-45q131 303 379 303q161 0 263.5 -127t102.5 -376q0 -358 -164.5 -654.5t-427.5 -296.5q-155 0 -246 91t-91 245q0 239 166.5 420.5t383.5 181.5q222 0 312 -190h4q10 144 10 186q0 175 -92.5 276t-253.5 101q-194 0 -301 -160zM911 629q-81 225 -284 225
q-178 0 -286 -190.5t-108 -399.5q0 -108 54 -172.5t143 -64.5q136 0 279.5 162.5t201.5 439.5z" />
    <glyph glyph-name="summation" unicode="&#x2211;" horiz-adv-x="1460" 
d="M1423 238q-32 -125 -54 -240t-34 -219q-63 11 -102.5 16.5t-54.5 5.5h-1031q-20 0 -59 -3t-59 -3l714 815l-710 930q70 -7 123 -10.5t90 -3.5h1018l12 -326h-41q-31 102 -52.5 141t-81.5 66q-30 13 -74.5 20t-104.5 7h-539l559 -734l-602 -694h760q127 0 177.5 52
t98.5 180h47z" />
    <glyph glyph-name="product" unicode="&#x220f;" horiz-adv-x="1686" 
d="M1645 -207h-629v47q120 0 159.5 41t39.5 125v1419h-734v-1419q0 -84 39.5 -125t159.5 -41v-47h-629v47q122 0 160.5 41t38.5 125v1282q0 101 -48.5 152t-146.5 51v47h1586v-47q-98 0 -146.5 -51t-48.5 -152v-1282q0 -84 38.5 -125t160.5 -41v-47z" />
    <glyph glyph-name="pi" unicode="&#x3c0;" horiz-adv-x="1124" 
d="M1085 309q-5 -155 -75.5 -248.5t-167.5 -93.5q-79 0 -138.5 91.5t-59.5 281.5q0 42 2 80t5 72l35 329h-231q-60 -624 -98.5 -742.5t-130.5 -118.5q-39 0 -74 31t-35 82q0 46 72.5 128.5t80.5 150.5l60 469h-97q-40 0 -78.5 -19.5t-56.5 -45.5l-43 -64h-35
q49 152 120.5 228.5t164.5 76.5h764v-176h-258q-12 -120 -18.5 -240t-6.5 -241q0 -82 38 -133t95 -51q35 0 73.5 28.5t43.5 74.5q3 22 4.5 34.5t1.5 15.5h43z" />
    <glyph glyph-name="integral" unicode="&#x222b;" horiz-adv-x="561" 
d="M602 1760q0 -39 -29.5 -64t-75.5 -25q-37 0 -60 25t-44 25q-18 0 -27.5 -14.5t-9.5 -43.5q0 -34 19.5 -256t19.5 -551q0 -505 -30 -709.5t-79 -282.5q-26 -41 -67.5 -62t-85.5 -21q-49 0 -86 35t-37 85q0 38 25.5 65t64.5 27q34 0 65.5 -33t44.5 -33q25 0 39.5 44.5
t14.5 153.5q0 37 -6 197t-6 562q0 481 17 638.5t41 215.5q29 70 69 104t84 34q57 0 98 -32.5t41 -83.5z" />
    <glyph glyph-name="ordfeminine" unicode="&#xaa;" horiz-adv-x="662" 
d="M657 1362l-88 -342q-12 -53 -12 -72q0 -24 21 -24q11 0 39 31.5t61 105.5h29q-38 -101 -85 -145t-90 -44q-82 0 -88 111h-4q-54 -111 -159 -111q-64 0 -110 55t-46 134q0 123 93.5 217t187.5 94q88 0 106 -88h4l16 78h125zM494 1237q0 46 -24 78.5t-60 32.5
q-47 0 -75.5 -48t-60.5 -175t-32 -167q0 -55 49 -55q82 0 142.5 117t60.5 217z" />
    <glyph glyph-name="ordmasculine" unicode="&#xba;" horiz-adv-x="575" 
d="M106 1077q0 119 90.5 207t202.5 88q90 0 139.5 -59t49.5 -142q0 -115 -93 -207t-200 -92q-86 0 -137.5 58t-51.5 147zM467 1272q0 76 -74 76q-51 0 -74 -39t-58.5 -164t-35.5 -174q0 -36 21.5 -55t50.5 -19q80 0 125 164t45 211z" />
    <glyph glyph-name="Omega" unicode="&#x2126;" horiz-adv-x="1573" 
d="M1506 0h-604l33 311q161 59 226 200t65 313q0 227 -107 373t-331 146t-331 -146t-107 -373q0 -172 65 -313t226 -200l33 -311h-604v332h30q16 -66 40 -95.5t96 -29.5h323l-4 57q-238 65 -341 221t-103 332q0 259 192 425.5t485 166.5t485 -166.5t192 -425.5
q0 -176 -103 -332t-341 -221l-4 -57h323q72 0 96 29.5t40 95.5h30v-332z" />
    <glyph glyph-name="ae" unicode="&#xe6;" horiz-adv-x="1323" 
d="M741 807h99v-105q111 109 243 109q80 0 144.5 -56.5t64.5 -150.5q0 -109 -92.5 -187.5t-388.5 -78.5q-23 -96 -23 -160q0 -63 46.5 -110.5t113.5 -47.5q63 0 140.5 50.5t146.5 156.5h47q-63 -125 -155 -188.5t-185 -63.5q-195 0 -315 215q-97 -215 -254 -215
q-104 0 -192.5 103.5t-88.5 247.5q0 182 144.5 333.5t287.5 151.5q126 0 172 -147h4zM819 383h49q127 0 177.5 33t79 102.5t28.5 143.5q0 104 -98 104q-81 0 -132.5 -76t-103.5 -307zM530 766q-51 0 -96.5 -51t-103.5 -283t-58 -295q0 -56 33 -86.5t80 -30.5
q127 0 203 213.5t76 364.5q0 65 -39 116.5t-95 51.5z" />
    <glyph glyph-name="oslash" unicode="&#xf8;" horiz-adv-x="874" 
d="M831 809l-86 -100q74 -93 74 -240q0 -186 -144.5 -340t-307.5 -154q-104 0 -181 68l-82 -96l-30 28l82 97q-80 104 -80 252q0 195 148 341t302 146q107 0 189 -70l82 95zM268 203l367 440q-11 121 -109 121q-62 0 -101 -44t-88.5 -208.5t-72.5 -304.5zM621 569l-363 -436
q7 -113 109 -113q64 0 114 68.5t144 476.5z" />
    <glyph glyph-name="questiondown" unicode="&#xbf;" horiz-adv-x="768" 
d="M401 694q0 49 35 83t82 34q48 0 82.5 -34t34.5 -83q0 -48 -34 -82t-83 -34t-83 33.5t-34 82.5zM498 463h53q11 -175 -47 -279t-218.5 -193t-197.5 -142.5t-37 -112.5q0 -86 66.5 -144.5t167.5 -58.5q75 0 146 38.5t71 72.5q0 9 -17 12q-90 20 -90 102q0 42 30 67t67 25
q44 0 72 -34t28 -82q0 -107 -99 -177.5t-219 -70.5q-123 0 -216 84t-93 225q0 126 74.5 233t235.5 183.5t193.5 122.5t29.5 129z" />
    <glyph glyph-name="exclamdown" unicode="&#xa1;" horiz-adv-x="662" 
d="M268 692q0 49 35.5 84t83.5 35q49 0 84 -35t35 -84t-35 -84t-84 -35q-48 0 -83.5 35.5t-35.5 83.5zM319 453h52q-46 -257 -56 -348.5t-12 -309.5q0 -309 -145 -309q-40 0 -73.5 33.5t-33.5 87.5q0 71 51 196q97 235 137.5 352.5t79.5 297.5z" />
    <glyph glyph-name="logicalnot" unicode="&#xac;" horiz-adv-x="1366" 
d="M143 958h1080v-596h-107v490h-973v106z" />
    <glyph glyph-name="radical" unicode="&#x221a;" horiz-adv-x="1124" 
d="M1055 1868l-307 -1946l-498 1028l-197 -96l-33 68l299 147l404 -825l260 1634z" />
    <glyph glyph-name="florin" unicode="&#x192;" 
d="M344 84l41 313l51 287q1 4 5 26.5t5 24.5h-184l10 51h187q59 293 185.5 436.5t264.5 143.5q80 0 137.5 -45t57.5 -109q0 -40 -26 -69t-62 -29q-37 0 -63.5 26.5t-26.5 61.5t28.5 64t28.5 32q0 21 -59 21q-136 0 -193 -146t-84 -387h146l-11 -51h-141l-72 -434
q-36 -212 -73 -345t-88.5 -235t-104 -154.5t-115 -78t-114.5 -25.5q-73 0 -124.5 40.5t-51.5 97.5q0 38 23 66t69 28q84 0 84 -94q0 -24 -11.5 -42t-11.5 -30q0 -18 29 -18q79 0 144.5 79.5t119.5 493.5z" />
    <glyph glyph-name="approxequal" unicode="&#x2248;" horiz-adv-x="1124" 
d="M1022 874h51q-21 -155 -95.5 -238t-186.5 -83q-97 0 -304 117q-139 78 -211 78q-149 0 -178 -187h-47q20 154 93.5 238t181.5 84q47 0 107 -19.5t224 -107.5q118 -62 193 -62q144 0 172 180zM1022 487h51q-21 -155 -95.5 -238t-186.5 -83q-96 0 -268.5 97t-246.5 97
q-149 0 -178 -186h-47q20 153 93.5 236.5t181.5 83.5q47 0 112 -21.5t219 -103.5q118 -62 193 -62q144 0 172 180z" />
    <glyph glyph-name="Delta" unicode="&#x2206;" horiz-adv-x="1253" 
d="M668 1409l577 -1409h-1233zM594 1059l-447 -959h844z" />
    <glyph glyph-name="guillemotleft" unicode="&#xab;" 
d="M387 831h188l-364 -407l176 -404h-160l-186 431zM791 831h192l-367 -407l175 -404h-158l-187 431z" />
    <glyph glyph-name="guillemotright" unicode="&#xbb;" 
d="M578 20h-189l365 408l-176 403h159l187 -430zM174 20h-192l366 408l-174 403h158l186 -430z" />
    <glyph glyph-name="ellipsis" unicode="&#x2026;" horiz-adv-x="2048" 
d="M1528 96q0 51 36.5 88t88.5 37q53 0 90 -37t37 -88q0 -52 -37 -89.5t-90 -37.5q-52 0 -88.5 37.5t-36.5 89.5zM866 96q0 51 37 88t90 37q52 0 88.5 -37t36.5 -88q0 -52 -36.5 -89.5t-88.5 -37.5q-53 0 -90 37.5t-37 89.5zM205 96q0 51 37 88t90 37q51 0 88 -37t37 -88
q0 -52 -37 -89.5t-88 -37.5q-52 0 -89.5 37.5t-37.5 89.5z" />
    <glyph glyph-name="nbspace" unicode="&#xa0;" horiz-adv-x="502" 
 />
    <glyph glyph-name="Agrave" unicode="&#xc0;" horiz-adv-x="1556" 
d="M993 444h-426l-319 -393h215l-10 -51h-447l10 51h164l1073 1321h50l-123 -1321h194l-10 -51h-623l9 51h200zM608 496h385l47 530l-4 4zM1390 1429l-33 -16l-204 200q-119 119 -119 168q0 33 27.5 57.5t54.5 24.5q60 0 147 -176z" />
    <glyph glyph-name="Atilde" unicode="&#xc3;" horiz-adv-x="1556" 
d="M993 444h-426l-319 -393h215l-10 -51h-447l10 51h164l1073 1321h50l-123 -1321h194l-10 -51h-623l9 51h200zM608 496h385l47 530l-4 4zM1537 1726h40q-4 -114 -61.5 -166.5t-124.5 -52.5q-61 0 -180.5 43t-157.5 43q-76 0 -90 -86h-41q12 221 201 221q52 0 173 -44
t155 -44q61 0 86 86z" />
    <glyph glyph-name="Otilde" unicode="&#xd5;" horiz-adv-x="1323" 
d="M125 479q0 208 108 418.5t276.5 342.5t319.5 132q207 0 333 -156.5t126 -384.5q0 -330 -214 -596t-486 -266q-201 0 -332 158.5t-131 351.5zM1065 1083q0 240 -227 240q-132 0 -222.5 -103t-175 -433.5t-84.5 -532.5q0 -236 230 -236q134 0 219 92.5t172.5 456.5
t87.5 516zM1215 1726h40q-4 -114 -61.5 -166.5t-124.5 -52.5q-61 0 -180.5 43t-157.5 43q-76 0 -90 -86h-41q12 221 201 221q52 0 173 -44t155 -44q61 0 86 86z" />
    <glyph glyph-name="OE" unicode="&#x152;" horiz-adv-x="1985" 
d="M1407 1290l-123 -565h70q130 0 181 54t85 173h51l-119 -549h-49q6 58 6 91q0 82 -39 131t-149 49h-45l-135 -623h311q143 0 226 70t202 307h45l-117 -428h-811q-125 0 -211 -12.5t-139 -12.5q-272 0 -400 162t-128 344q0 316 229.5 600.5t556.5 284.5q74 0 158 -12.5
t172 -12.5h790l-59 -344h-51q4 44 4 71q0 76 -30.5 134.5t-74 73t-153.5 14.5h-254zM911 51l263 1241q-41 0 -114 12.5t-128 12.5q-202 0 -301.5 -97.5t-182.5 -388.5t-83 -555q0 -251 288 -251q34 0 103 8z" />
    <glyph glyph-name="oe" unicode="&#x153;" horiz-adv-x="1323" 
d="M1229 217h53q-153 -242 -352 -242q-135 0 -260 125q-161 -125 -289 -125t-212.5 102t-84.5 228q0 190 150 348t315 158q140 0 242 -119q151 119 280 119q92 0 155.5 -59t63.5 -134q0 -73 -55.5 -153.5t-149.5 -105t-274 -21.5q-23 -88 -23 -156q0 -67 41 -114.5t99 -47.5
q171 0 301 197zM819 383q126 -4 182.5 13t101 95t44.5 162q0 113 -92 113q-90 0 -140 -87t-96 -296zM389 20q82 0 135 73t101.5 266t48.5 274q0 53 -34.5 93t-94.5 40q-80 0 -126.5 -73.5t-96.5 -277.5t-50 -280q0 -46 30.5 -80.5t86.5 -34.5z" />
    <glyph glyph-name="endash" unicode="&#x2013;" horiz-adv-x="1024" 
d="M-33 467h1049v-86h-1049v86z" />
    <glyph glyph-name="emdash" unicode="&#x2014;" horiz-adv-x="2048" 
d="M-33 467h2073v-86h-2073v86z" />
    <glyph glyph-name="quotedblleft" unicode="&#x201c;" 
d="M555 1346l14 -50q-170 -71 -238.5 -154t-68.5 -151q0 -39 27 -39q15 0 35 29q31 47 86 47q37 0 68.5 -29.5t31.5 -74.5q0 -60 -44.5 -94.5t-100.5 -34.5q-71 0 -118.5 50t-47.5 118q0 90 73.5 192t282.5 191zM1010 1346l14 -50q-170 -71 -238.5 -154t-68.5 -151
q0 -39 26 -39q15 0 35 29q32 47 86 47q38 0 69.5 -29.5t31.5 -74.5q0 -60 -44.5 -94.5t-101.5 -34.5q-70 0 -118 50t-48 118q0 90 74 192t283 191z" />
    <glyph glyph-name="quotedblright" unicode="&#x201d;" 
d="M670 795l-15 49q171 72 239.5 154.5t68.5 150.5q0 39 -27 39q-15 0 -35 -29q-31 -47 -86 -47q-37 0 -68.5 29.5t-31.5 75.5q0 59 44 94t101 35q70 0 118 -50.5t48 -117.5q0 -90 -73.5 -192.5t-282.5 -190.5zM215 795l-14 49q170 72 238.5 154.5t68.5 150.5q0 39 -27 39
q-15 0 -35 -29q-31 -47 -86 -47q-37 0 -68.5 29.5t-31.5 75.5q0 59 44.5 94t101.5 35q70 0 117.5 -50.5t47.5 -117.5q0 -90 -73.5 -192.5t-282.5 -190.5z" />
    <glyph glyph-name="quoteleft" unicode="&#x2018;" horiz-adv-x="555" 
d="M555 1366l14 -49q-170 -72 -238.5 -155t-68.5 -150q0 -39 27 -39q15 0 35 28q31 48 86 48q37 0 68.5 -29.5t31.5 -75.5q0 -59 -44.5 -94t-100.5 -35q-71 0 -118.5 50.5t-47.5 117.5q0 90 73.5 192t282.5 191z" />
    <glyph glyph-name="quoteright" unicode="&#x2019;" horiz-adv-x="555" 
d="M221 813l-14 49q170 72 238.5 155t68.5 150q0 39 -27 39q-15 0 -34 -28q-32 -48 -86 -48q-38 0 -69.5 29.5t-31.5 75.5q0 59 44.5 94t101.5 35q70 0 118 -50t48 -118q0 -90 -74 -192t-283 -191z" />
    <glyph glyph-name="divide" unicode="&#xf7;" horiz-adv-x="1368" 
d="M610 1065q0 30 21 52t51 22t52 -22.5t22 -51.5t-22 -50.5t-52 -21.5q-29 0 -50.5 21.5t-21.5 50.5zM143 711h1080v-105h-1080v105zM610 250q0 30 21 52t51 22t52 -22.5t22 -51.5t-22 -50.5t-52 -21.5q-29 0 -50.5 21.5t-21.5 50.5z" />
    <glyph glyph-name="lozenge" unicode="&#x25ca;" horiz-adv-x="1012" 
d="M962 763l-397 -763h-122l-397 763l397 763h122zM839 763l-335 652l-335 -652l335 -652z" />
    <glyph glyph-name="ydieresis" unicode="&#xff;" horiz-adv-x="897" 
d="M414 -47l-168 608q-24 88 -35.5 112.5t-34.5 24.5q-56 0 -129 -211h-43q50 162 120 243t144 81q49 0 85.5 -35t70.5 -158l115 -419h4q21 66 110.5 294.5t123.5 273t83 44.5q78 0 78 -76q0 -38 -20.5 -61t-45.5 -23q-16 0 -34.5 12.5t-26.5 12.5q-38 0 -90 -129l-174 -432
q-85 -208 -243 -425.5t-363 -217.5q-62 0 -92.5 28.5t-30.5 63.5q0 29 20 49t53 20q68 0 95 -65q19 -41 39 -41q46 0 155 87.5t234 338.5zM696 1126q0 42 29.5 71.5t70.5 29.5t70.5 -29.5t29.5 -71.5t-29 -71t-71 -29t-71 29t-29 71zM350 1126q0 42 29.5 71.5t70.5 29.5
t70.5 -29.5t29.5 -71.5q0 -41 -29.5 -70.5t-70.5 -29.5t-70.5 29.5t-29.5 70.5z" />
    <glyph glyph-name="Ydieresis" unicode="&#x178;" horiz-adv-x="1665" 
d="M983 684l516 606h-196l12 51h426l-12 -51h-162l-557 -659l-123 -580h192l-10 -51h-623l13 51h192l117 549l-344 690h-170l10 51h623l-10 -51h-199zM1161 1616q0 42 29.5 71.5t70.5 29.5t70.5 -29.5t29.5 -71.5t-29 -71t-71 -29t-71 29t-29 71zM815 1616q0 42 29.5 71.5
t70.5 29.5t70.5 -29.5t29.5 -71.5q0 -41 -29.5 -70.5t-70.5 -29.5t-70.5 29.5t-29.5 70.5z" />
    <glyph glyph-name="fraction" unicode="&#x2044;" horiz-adv-x="170" 
d="M866 1374h90l-1251 -1442h-90z" />
    <glyph glyph-name="fraction" unicode="&#x2215;" horiz-adv-x="170" 
d="M866 1374h90l-1251 -1442h-90z" />
    <glyph glyph-name="Euro" unicode="&#x20ac;" 
d="M240 784q62 196 201 361.5t327 165.5q100 0 166.5 -63t66.5 -161q0 -50 -24 -80t-59 -30t-56.5 23t-21.5 59q0 29 25 71q18 30 18 46q0 90 -117 90q-77 0 -140.5 -69.5t-98.5 -180t-68 -232.5h262l-21 -45h-254q-10 -35 -26 -108h250l-21 -45h-241q-54 -240 -54 -357
q0 -94 63 -154.5t144 -60.5q84 0 131 28.5t47 72.5q0 17 -15 48q-17 37 -17 60q0 88 81 88q36 0 58 -35t22 -81q0 -91 -89.5 -158.5t-217.5 -67.5q-167 0 -269 121.5t-102 358.5q0 69 9 137h-117l20 45h103q5 47 22 108h-94l21 45h86z" />
    <glyph glyph-name="guilsinglleft" unicode="&#x2039;" horiz-adv-x="598" 
d="M387 831h191l-365 -407l174 -404h-160l-186 431z" />
    <glyph glyph-name="guilsinglright" unicode="&#x203a;" horiz-adv-x="598" 
d="M170 20h-190l364 406l-174 405h160l186 -430z" />
    <glyph glyph-name="fi" unicode="&#xfb01;" horiz-adv-x="1110" 
d="M770 735h-289q-142 -598 -176 -728.5t-91.5 -247t-136.5 -195t-188 -78.5q-84 0 -133 34.5t-49 92.5q0 34 27.5 66t68.5 32q78 0 78 -78q0 -27 -15.5 -48t-15.5 -31q0 -23 29 -23q86 0 140 78t85 244l68 361q75 405 111 521h-158l8 51h162q172 580 534 580
q86 0 140.5 -46t54.5 -110q0 -43 -29.5 -69.5t-62.5 -26.5q-34 0 -58 26t-24 58q0 40 24.5 65.5t24.5 32.5q0 25 -82 25q-125 0 -195 -119.5t-130 -415.5h196q180 0 285 19l-142 -627q-14 -60 -14 -82q0 -28 25 -28q96 0 180 221h49q-51 -147 -135 -230.5t-162 -83.5
q-64 0 -100.5 38t-36.5 96q0 48 20 137z" />
    <glyph glyph-name="fl" unicode="&#xfb02;" horiz-adv-x="1110" 
d="M1106 1366l-277 -1194q-10 -41 -10 -68q0 -36 29 -36q84 0 178 229h49q-43 -141 -128.5 -231.5t-188.5 -90.5q-63 0 -94 38.5t-31 95.5q0 34 22 131l203 870q-39 17 -39 68q0 34 21.5 59t21.5 37q0 22 -27 34.5t-53 12.5q-112 0 -176 -139t-117 -396h187l-10 -51h-191
q-155 -801 -291 -1025t-305 -224q-69 0 -120.5 35.5t-51.5 93.5q0 44 26.5 70t69.5 26q39 0 60.5 -21.5t21.5 -51.5q0 -36 -16 -62q0 -1 -7 -11.5t-7 -19.5q0 -14 36 -14q79 0 134 89t118.5 461t132.5 654h-165l10 51h170q71 268 211.5 424t285.5 156q25 0 91.5 -12.5
t91.5 -12.5q31 0 69 13l37 12h29z" />
    <glyph glyph-name="daggerdbl" unicode="&#x2021;" horiz-adv-x="1110" 
d="M717 883q61 3 142 29t116 26q31 0 60.5 -21t29.5 -55t-29.5 -57t-58.5 -23q-35 0 -128 31.5t-142 32.5q-11 -45 -11 -109q0 -52 37 -116q-170 -140 -170 -252q0 -46 37 -127q-97 -81 -143 -219q59 0 143 32q82 25 117 25q32 0 59 -21t27 -53q0 -29 -25 -52.5t-69 -23.5
q-57 0 -133.5 24t-131.5 28q-20 -55 -20 -99l6 -141q0 -73 -32.5 -136t-86.5 -63q-37 0 -60.5 29.5t-23.5 60.5q0 67 73.5 181t77 118.5t12.5 24.5t11 25q-53 0 -131 -26t-129 -26q-90 0 -90 72q0 37 29 57.5t57 20.5q41 0 118 -25t101 -30.5t60 -1.5q2 41 2 68
q0 77 -31 151q162 137 162 270q0 47 -35 109q114 109 148 225q-58 0 -140 -31t-123 -31q-32 0 -60 20t-28 56q0 35 33 57.5t62 22.5q56 0 118 -27q83 -26 150 -30l16 71l-8 172q0 93 40 144t83 51q31 0 56.5 -26t25.5 -66q0 -71 -78.5 -184t-91.5 -162z" />
    <glyph glyph-name="periodcentered" unicode="&#xb7;" horiz-adv-x="662" 
d="M213 641q0 49 34.5 84t82.5 35q49 0 84 -34.5t35 -84.5q0 -49 -35 -83t-84 -34q-48 0 -82.5 34.5t-34.5 82.5z" />
    <glyph glyph-name="periodcentered" unicode="&#x2219;" horiz-adv-x="662" 
d="M213 641q0 49 34.5 84t82.5 35q49 0 84 -34.5t35 -84.5q0 -49 -35 -83t-84 -34q-48 0 -82.5 34.5t-34.5 82.5z" />
    <glyph glyph-name="quotesinglbase" unicode="&#x201a;" horiz-adv-x="555" 
d="M25 -326l-15 50q171 71 239 154t68 151q0 39 -26 39q-15 0 -35 -29q-31 -47 -86 -47q-37 0 -68.5 29.5t-31.5 74.5q0 60 44 94.5t101 34.5q70 0 118 -50t48 -118q0 -90 -73.5 -192t-282.5 -191z" />
    <glyph glyph-name="quotedblbase" unicode="&#x201e;" 
d="M475 -326l-14 50q170 71 238.5 154t68.5 151q0 39 -27 39q-15 0 -34 -29q-32 -47 -86 -47q-38 0 -69.5 29.5t-31.5 74.5q0 60 44.5 94.5t101.5 34.5q70 0 117.5 -50t47.5 -118q0 -90 -73.5 -192t-282.5 -191zM20 -326l-14 50q170 71 238.5 154t68.5 151q0 39 -26 39
q-15 0 -35 -29q-31 -47 -86 -47q-37 0 -68.5 29.5t-31.5 74.5q0 60 44 94.5t101 34.5q70 0 118 -50t48 -118q0 -90 -73.5 -192t-283.5 -191z" />
    <glyph glyph-name="perthousand" unicode="&#x2030;" horiz-adv-x="1985" 
d="M500 1370q84 0 140 -73t56 -205q0 -174 -109.5 -298t-228.5 -124q-84 0 -139 77.5t-55 196.5q0 163 104 294.5t232 131.5zM367 711q48 0 77.5 52.5t75 222t45.5 257.5q0 41 -20.5 63.5t-46.5 22.5q-40 0 -73 -37.5t-81.5 -236t-48.5 -267.5q0 -77 72 -77zM1223 1372h84
l-1125 -1435h-86zM1038 637q85 0 141 -73t56 -206q0 -173 -110 -297t-228 -124q-84 0 -139.5 77.5t-55.5 196.5q0 163 104 294.5t232 131.5zM905 -23q48 0 78 53t75.5 222.5t45.5 257.5q0 41 -21 63.5t-47 22.5q-39 0 -72.5 -37.5t-81.5 -236t-48 -267.5q0 -78 71 -78z
M1667 637q84 0 140.5 -73t56.5 -206q0 -173 -110 -297t-228 -124q-84 0 -139.5 77.5t-55.5 196.5q0 163 104 294.5t232 131.5zM1534 -23q48 0 78 53t75.5 222.5t45.5 257.5q0 41 -21 63.5t-47 22.5q-39 0 -72.5 -37.5t-82 -236t-48.5 -267.5q0 -78 72 -78z" />
    <glyph glyph-name="Acircumflex" unicode="&#xc2;" horiz-adv-x="1556" 
d="M993 444h-426l-319 -393h215l-10 -51h-447l10 51h164l1073 1321h50l-123 -1321h194l-10 -51h-623l9 51h200zM608 496h385l47 530l-4 4zM1231 1775h90l203 -317h-43l-215 170l-280 -170h-50z" />
    <glyph glyph-name="Ecircumflex" unicode="&#xca;" horiz-adv-x="1430" 
d="M758 1290l-121 -563h104q123 0 183.5 42.5t107.5 193.5h51l-120 -557h-52q11 55 11 110q0 49 -27 93.5t-59.5 55.5t-102.5 11h-106l-133 -625h352q124 0 183.5 16.5t134 109.5t149.5 245h51l-125 -422h-1173l10 51h184l262 1239h-207l11 51h1130l-61 -340h-45
q2 140 -29 201t-87 74.5t-177 13.5h-299zM959 1775h90l203 -317h-43l-215 170l-280 -170h-50z" />
    <glyph glyph-name="Aacute" unicode="&#xc1;" horiz-adv-x="1556" 
d="M993 444h-426l-319 -393h215l-10 -51h-447l10 51h164l1073 1321h50l-123 -1321h194l-10 -51h-623l9 51h200zM608 496h385l47 530l-4 4zM1062 1448l-20 29l225 182q4 2 63 50.5t105 48.5q39 0 61.5 -28t22.5 -56q0 -35 -33.5 -63t-156.5 -70z" />
    <glyph glyph-name="Edieresis" unicode="&#xcb;" horiz-adv-x="1430" 
d="M758 1290l-121 -563h104q123 0 183.5 42.5t107.5 193.5h51l-120 -557h-52q11 55 11 110q0 49 -27 93.5t-59.5 55.5t-102.5 11h-106l-133 -625h352q124 0 183.5 16.5t134 109.5t149.5 245h51l-125 -422h-1173l10 51h184l262 1239h-207l11 51h1130l-61 -340h-45
q2 140 -29 201t-87 74.5t-177 13.5h-299zM1061 1616q0 42 29.5 71.5t70.5 29.5t70.5 -29.5t29.5 -71.5t-29 -71t-71 -29t-71 29t-29 71zM715 1616q0 42 29.5 71.5t70.5 29.5t70.5 -29.5t29.5 -71.5q0 -41 -29.5 -70.5t-70.5 -29.5t-70.5 29.5t-29.5 70.5z" />
    <glyph glyph-name="Egrave" unicode="&#xc8;" horiz-adv-x="1430" 
d="M758 1290l-121 -563h104q123 0 183.5 42.5t107.5 193.5h51l-120 -557h-52q11 55 11 110q0 49 -27 93.5t-59.5 55.5t-102.5 11h-106l-133 -625h352q124 0 183.5 16.5t134 109.5t149.5 245h51l-125 -422h-1173l10 51h184l262 1239h-207l11 51h1130l-61 -340h-45
q2 140 -29 201t-87 74.5t-177 13.5h-299zM1118 1429l-33 -16l-204 200q-119 119 -119 168q0 33 27.5 57.5t54.5 24.5q60 0 147 -176z" />
    <glyph glyph-name="Iacute" unicode="&#xcd;" 
d="M831 1290l-268 -1239h185l-11 -51h-606l12 51h185l268 1239h-184l12 51h604l-10 -51h-187zM622 1448l-20 29l225 182q4 2 63 50.5t105 48.5q39 0 61.5 -28t22.5 -56q0 -35 -33.5 -63t-156.5 -70z" />
    <glyph glyph-name="Icircumflex" unicode="&#xce;" 
d="M831 1290l-268 -1239h185l-11 -51h-606l12 51h185l268 1239h-184l12 51h604l-10 -51h-187zM746 1775h90l203 -317h-43l-215 170l-280 -170h-50z" />
    <glyph glyph-name="Idieresis" unicode="&#xcf;" 
d="M831 1290l-268 -1239h185l-11 -51h-606l12 51h185l268 1239h-184l12 51h604l-10 -51h-187zM848 1616q0 42 29.5 71.5t70.5 29.5t70.5 -29.5t29.5 -71.5t-29 -71t-71 -29t-71 29t-29 71zM502 1616q0 42 29.5 71.5t70.5 29.5t70.5 -29.5t29.5 -71.5q0 -41 -29.5 -70.5
t-70.5 -29.5t-70.5 29.5t-29.5 70.5z" />
    <glyph glyph-name="Igrave" unicode="&#xcc;" 
d="M831 1290l-268 -1239h185l-11 -51h-606l12 51h185l268 1239h-184l12 51h604l-10 -51h-187zM905 1429l-33 -16l-204 200q-119 119 -119 168q0 33 27.5 57.5t54.5 24.5q60 0 147 -176z" />
    <glyph glyph-name="Oacute" unicode="&#xd3;" horiz-adv-x="1323" 
d="M125 479q0 208 108 418.5t276.5 342.5t319.5 132q207 0 333 -156.5t126 -384.5q0 -330 -214 -596t-486 -266q-201 0 -332 158.5t-131 351.5zM1065 1083q0 240 -227 240q-132 0 -222.5 -103t-175 -433.5t-84.5 -532.5q0 -236 230 -236q134 0 219 92.5t172.5 456.5
t87.5 516zM765 1448l-20 29l225 182q4 2 63 50.5t105 48.5q39 0 61.5 -28t22.5 -56q0 -35 -33.5 -63t-156.5 -70z" />
    <glyph glyph-name="Ocircumflex" unicode="&#xd4;" horiz-adv-x="1323" 
d="M125 479q0 208 108 418.5t276.5 342.5t319.5 132q207 0 333 -156.5t126 -384.5q0 -330 -214 -596t-486 -266q-201 0 -332 158.5t-131 351.5zM1065 1083q0 240 -227 240q-132 0 -222.5 -103t-175 -433.5t-84.5 -532.5q0 -236 230 -236q134 0 219 92.5t172.5 456.5
t87.5 516zM909 1775h90l203 -317h-43l-215 170l-280 -170h-50z" />
    <glyph glyph-name="apple" horiz-adv-x="717" 
d="M125 678q0 103 74.5 176.5t177.5 73.5t176.5 -73.5t73.5 -176.5q0 -104 -73.5 -178t-176.5 -74q-104 0 -178 74t-74 178z" />
    <glyph glyph-name="Ograve" unicode="&#xd2;" horiz-adv-x="1323" 
d="M125 479q0 208 108 418.5t276.5 342.5t319.5 132q207 0 333 -156.5t126 -384.5q0 -330 -214 -596t-486 -266q-201 0 -332 158.5t-131 351.5zM1065 1083q0 240 -227 240q-132 0 -222.5 -103t-175 -433.5t-84.5 -532.5q0 -236 230 -236q134 0 219 92.5t172.5 456.5
t87.5 516zM1048 1429l-33 -16l-204 200q-119 119 -119 168q0 33 27.5 57.5t54.5 24.5q60 0 147 -176z" />
    <glyph glyph-name="Uacute" unicode="&#xda;" horiz-adv-x="1665" 
d="M776 1290l-170 -796q-3 -1 -17 -79t-14 -136q0 -254 299 -254q173 0 286 101.5t167 381.5l152 782h-189l10 51h418l-10 -51h-176l-162 -827q-50 -262 -176.5 -378t-349.5 -116q-240 0 -367 103.5t-127 240.5q0 70 31 213l164 764h-193l10 51h605l-11 -51h-180zM952 1448
l-20 29l225 182q4 2 63 50.5t105 48.5q39 0 61.5 -28t22.5 -56q0 -35 -33.5 -63t-156.5 -70z" />
    <glyph glyph-name="Ucircumflex" unicode="&#xdb;" horiz-adv-x="1665" 
d="M776 1290l-170 -796q-3 -1 -17 -79t-14 -136q0 -254 299 -254q173 0 286 101.5t167 381.5l152 782h-189l10 51h418l-10 -51h-176l-162 -827q-50 -262 -176.5 -378t-349.5 -116q-240 0 -367 103.5t-127 240.5q0 70 31 213l164 764h-193l10 51h605l-11 -51h-180zM1075 1775
h90l203 -317h-43l-215 170l-280 -170h-50z" />
    <glyph glyph-name="Ugrave" unicode="&#xd9;" horiz-adv-x="1665" 
d="M776 1290l-170 -796q-3 -1 -17 -79t-14 -136q0 -254 299 -254q173 0 286 101.5t167 381.5l152 782h-189l10 51h418l-10 -51h-176l-162 -827q-50 -262 -176.5 -378t-349.5 -116q-240 0 -367 103.5t-127 240.5q0 70 31 213l164 764h-193l10 51h605l-11 -51h-180zM1235 1429
l-33 -16l-204 200q-119 119 -119 168q0 33 27.5 57.5t54.5 24.5q60 0 147 -176z" />
    <glyph glyph-name="dotlessi" unicode="&#x131;" horiz-adv-x="662" 
d="M496 805l-150 -617q-16 -76 -16 -98q0 -37 37 -37q46 0 106.5 66.5t118.5 197.5h45q-131 -342 -358 -342q-132 0 -132 138q0 39 31 166l111 456h-189l11 51h116q145 0 269 19z" />
    <glyph glyph-name="circumflex" unicode="&#x2c6;" horiz-adv-x="682" 
d="M485 1286h90l203 -317h-43l-215 170l-280 -170h-50z" />
    <glyph glyph-name="tilde" unicode="&#x2dc;" horiz-adv-x="682" 
d="M791 1237h40q-4 -114 -61.5 -166.5t-124.5 -52.5q-61 0 -180.5 43t-157.5 43q-76 0 -90 -86h-41q12 221 201 221q52 0 173 -44t155 -44q61 0 86 86z" />
    <glyph glyph-name="macron" unicode="&#x2c9;" horiz-adv-x="682" 
d="M203 1204h549l-35 -155h-549z" />
    <glyph glyph-name="breve" unicode="&#x2d8;" horiz-adv-x="682" 
d="M311 1284h23q-10 -174 180 -174q157 0 244 174h24q-34 -167 -113.5 -238t-168.5 -71q-90 0 -149.5 62t-59.5 141q0 39 20 106z" />
    <glyph glyph-name="dotaccent" unicode="&#x2d9;" horiz-adv-x="682" 
d="M397 1186q0 43 31.5 73.5t75.5 30.5q43 0 74.5 -30.5t31.5 -73.5q0 -44 -31.5 -75.5t-74.5 -31.5q-45 0 -76 31t-31 76z" />
    <glyph glyph-name="ring" unicode="&#x2da;" horiz-adv-x="682" 
d="M334 1128q0 72 50.5 122t121.5 50q70 0 120 -50.5t50 -121.5q0 -69 -50.5 -120.5t-119.5 -51.5q-71 0 -121.5 51t-50.5 121zM629 1128q0 52 -36 88.5t-87 36.5q-52 0 -88.5 -36.5t-36.5 -88.5t36.5 -88t88.5 -36q51 0 87 36.5t36 87.5z" />
    <glyph glyph-name="cedilla" unicode="&#xb8;" horiz-adv-x="682" 
d="M276 16h35q-10 -65 -22 -110q56 4 87.5 -29t31.5 -78q0 -53 -43.5 -97t-118.5 -44q-36 0 -99 16l9 41q48 -8 69 -8q97 0 97 64q0 47 -52 47l-39 -2q32 123 45 200z" />
    <glyph glyph-name="hungarumlaut" unicode="&#x2dd;" horiz-adv-x="682" 
d="M100 958l-20 29l225 182q8 5 64.5 52t105.5 47q38 0 60 -28t22 -56q0 -35 -34 -63.5t-154 -69.5zM463 958l-21 29l226 182q3 2 62.5 50.5t105.5 48.5q39 0 61.5 -28t22.5 -56q0 -35 -33.5 -63t-157.5 -70z" />
    <glyph glyph-name="ogonek" unicode="&#x2db;" horiz-adv-x="682" 
d="M215 18h43q-39 -68 -39 -106q0 -71 52 -123.5t128 -52.5q58 0 138 45l18 -21q-124 -116 -252 -116q-70 0 -131 50t-61 122q0 108 104 202z" />
    <glyph glyph-name="caron" unicode="&#x2c7;" horiz-adv-x="682" 
d="M236 1284h43l213 -168l276 168h55l-297 -315h-90z" />
    <glyph glyph-name="Lslash" unicode="&#x141;" horiz-adv-x="1323" 
d="M745 1290l-100 -461l4 -4l293 238h8l-32 -102l-293 -242l-144 -668h264q127 0 198 23.5t132 104.5t133 257h52l-119 -436h-1086l11 51h186l92 441l-4 4l-211 -172h-10l28 98l220 176l145 692h-199l11 51h630l-12 -51h-197z" />
    <glyph glyph-name="lslash" unicode="&#x142;" horiz-adv-x="555" 
d="M555 1356l-131 -557l4 -4l215 184l-22 -102l-218 -179l-118 -505q-15 -63 -15 -91q0 -34 25 -34q86 0 172 229h45q-111 -322 -299 -322q-52 0 -91.5 34.5t-39.5 96.5q0 26 14 87l74 311l-4 4l-152 -131l21 98l155 129l158 686h-137l10 51h135q63 0 199 15z" />
    <glyph glyph-name="Scaron" unicode="&#x160;" horiz-adv-x="1217" 
d="M1178 1341l-93 -383h-49q-1 194 -86 281.5t-215 87.5q-128 0 -212.5 -76.5t-84.5 -152.5q0 -59 52.5 -112.5t245.5 -136t276.5 -180.5t83.5 -241q0 -194 -144.5 -326.5t-335.5 -132.5q-175 0 -337 131q-81 -54 -132 -100h-38l96 389h41q21 -182 123 -275.5t247 -93.5
q149 0 244.5 82t95.5 199q0 90 -67 159t-258.5 154t-246 162.5t-54.5 186.5q0 184 119.5 296.5t293.5 112.5q189 0 293 -133q64 48 94 102h48zM586 1773h43l213 -168l276 168h55l-297 -315h-90z" />
    <glyph glyph-name="scaron" unicode="&#x161;" horiz-adv-x="768" 
d="M311 657q0 -33 25.5 -65t130 -87.5t153 -115t48.5 -135.5q0 -123 -103 -201t-243 -78q-112 0 -185.5 51t-73.5 119q0 40 25.5 67.5t63.5 27.5q37 0 57 -24.5t20 -55.5q0 -23 -12 -50t-12 -34q0 -56 123 -56q94 0 150.5 41.5t56.5 94.5q0 85 -158 161q-199 97 -199 246
q0 91 83 169.5t218 78.5q102 0 162.5 -38t60.5 -103q0 -37 -25.5 -61.5t-58.5 -24.5t-54 22.5t-21 55.5q0 14 7 36.5t7 36.5q0 31 -82 31q-76 0 -120 -31t-44 -78zM279 1284h43l213 -168l276 168h55l-297 -315h-90z" />
    <glyph glyph-name="Zcaron" unicode="&#x17d;" horiz-adv-x="1323" 
d="M430 1341h938v-32l-1001 -1258h295q127 0 207.5 18.5t157.5 98.5t132 252h49l-94 -420h-1036v51l991 1239h-248q-113 0 -184 -18t-133.5 -87t-114.5 -214h-51zM639 1773h43l213 -168l276 168h55l-297 -315h-90z" />
    <glyph glyph-name="zcaron" unicode="&#x17e;" horiz-adv-x="768" 
d="M82 502l162 309q218 -98 356 -98q70 0 74 45q0 53 37 53q28 0 28 -25q0 -52 -194 -254l-203 -200q-33 -40 -86 -88l-47 -43l4 -4q46 12 78 12q104 0 248 -66q32 -12 47 -12q29 0 47 20.5t18 41.5q0 16 -28 20q-64 4 -64 59q0 32 22 51t48 19q71 0 71 -102
q0 -98 -83.5 -181.5t-159.5 -83.5q-52 0 -171.5 51.5t-148.5 51.5q-37 0 -37 -23l6 -34q0 -46 -40 -46q-37 0 -37 39q0 64 264.5 330t275.5 266l-4 4q-136 -20 -237 -20q-56 0 -140 20l-55 -112h-51zM279 1284h43l213 -168l276 168h55l-297 -315h-90z" />
    <glyph glyph-name="brokenbar" unicode="&#xa6;" horiz-adv-x="1079" 
d="M485 1372h111v-817h-111v817zM485 -524v817h111v-817h-111z" />
    <glyph glyph-name="sfthyphen" unicode="&#xad;" horiz-adv-x="662" 
d="M90 516h428v-182h-428v182z" />
    <glyph glyph-name="overscore" unicode="&#xaf;" horiz-adv-x="1024" 
d="M1429 1495h-1048v102h1048v-102z" />
    <glyph glyph-name="Eth" unicode="&#xd0;" horiz-adv-x="1556" 
d="M377 655h-205l10 52h205l123 583h-207l12 51h543q185 0 308.5 -44t217 -183.5t93.5 -329.5q0 -271 -208 -527.5t-589 -256.5h-625l11 51h184zM942 655h-332l-127 -604h170q118 0 196.5 15t142.5 71t127 218t91.5 332t28.5 302q0 124 -53 195.5t-117 88.5t-197 17h-129
l-122 -583h333z" />
    <glyph glyph-name="eth" unicode="&#xf0;" horiz-adv-x="1024" 
d="M752 1120l166 41l14 -49l-154 -41q113 -222 113 -465q0 -289 -140 -460t-325 -171q-133 0 -214 93t-81 241q0 205 140.5 353.5t293.5 148.5q70 0 135 -39q9 128 -34 270l-220 -55l-14 49l219 56q-46 126 -166 237l23 37q195 -148 244 -246zM684 633q0 57 -30 96t-79 39
q-72 0 -116.5 -67t-92 -265.5t-47.5 -288.5q0 -53 29 -90t82 -37q82 0 126 90t86 268.5t42 254.5z" />
    <glyph glyph-name="Yacute" unicode="&#xdd;" horiz-adv-x="1665" 
d="M983 684l516 606h-196l12 51h426l-12 -51h-162l-557 -659l-123 -580h192l-10 -51h-623l13 51h192l117 549l-344 690h-170l10 51h623l-10 -51h-199zM935 1448l-20 29l225 182q4 2 63 50.5t105 48.5q39 0 61.5 -28t22.5 -56q0 -35 -33.5 -63t-156.5 -70z" />
    <glyph glyph-name="yacute" unicode="&#xfd;" horiz-adv-x="897" 
d="M414 -47l-168 608q-24 88 -35.5 112.5t-34.5 24.5q-56 0 -129 -211h-43q50 162 120 243t144 81q49 0 85.5 -35t70.5 -158l115 -419h4q21 66 110.5 294.5t123.5 273t83 44.5q78 0 78 -76q0 -38 -20.5 -61t-45.5 -23q-16 0 -34.5 12.5t-26.5 12.5q-38 0 -90 -129l-174 -432
q-85 -208 -243 -425.5t-363 -217.5q-62 0 -92.5 28.5t-30.5 63.5q0 29 20 49t53 20q68 0 95 -65q19 -41 39 -41q46 0 155 87.5t234 338.5zM471 958l-20 29l225 182q4 2 63 50.5t105 48.5q39 0 61.5 -28t22.5 -56q0 -35 -33.5 -63t-156.5 -70z" />
    <glyph glyph-name="Thorn" unicode="&#xde;" horiz-adv-x="1430" 
d="M338 1290l10 51h643l-10 -51h-207l-49 -235h152q204 0 291 -25.5t151.5 -108t64.5 -190.5q0 -158 -146.5 -278.5t-457.5 -120.5h-200l-56 -281h207l-10 -51h-641l10 51h203l250 1239h-205zM891 1004h-174l-127 -621h186q135 0 201 32t113 156t47 260q0 78 -43.5 125.5
t-202.5 47.5z" />
    <glyph glyph-name="thorn" unicode="&#xfe;" horiz-adv-x="1110" 
d="M641 1356l-158 -688l4 -4q101 147 263 147q125 0 199.5 -90.5t74.5 -222.5q0 -195 -149.5 -359t-321.5 -164q-145 0 -197 134h-4l-131 -572h172l-10 -51h-518l10 51h156l403 1753h-180l10 51h119q150 0 258 15zM834 643q0 123 -95 123q-110 0 -190.5 -86.5t-122 -258
t-41.5 -224.5q0 -86 51 -131.5t115 -45.5q77 0 135 71t103 274.5t45 277.5z" />
    <glyph glyph-name="minus" unicode="&#x2212;" horiz-adv-x="1366" 
d="M143 713h1080v-107h-1080v107z" />
    <glyph glyph-name="multiply" unicode="&#xd7;" horiz-adv-x="1366" 
d="M190 1075l76 76l418 -418l418 418l76 -76l-416 -416l416 -415l-76 -76l-418 418l-418 -418l-76 76l416 415z" />
    <glyph glyph-name="onesuperior" unicode="&#xb9;" horiz-adv-x="641" 
d="M563 1311l-172 -631h144l-7 -25h-405l6 25h137l166 590h-153l8 24h86q122 0 190 17z" />
    <glyph glyph-name="twosuperior" unicode="&#xb2;" horiz-adv-x="641" 
d="M596 825l-53 -170h-465v31q39 47 268 205q197 139 197 299q0 43 -31.5 68.5t-77.5 25.5q-73 0 -126.5 -35t-53.5 -65q0 -19 20 -19q51 0 67.5 -6t16.5 -33q0 -20 -19 -34.5t-46 -14.5q-36 0 -59 22.5t-23 51.5q0 60 67.5 110t178.5 50q99 0 159 -41t60 -105
q0 -40 -35.5 -86.5t-224.5 -173.5l-101 -67q-107 -72 -141 -103h277q48 0 65 7t31 41t14 42h35z" />
    <glyph glyph-name="threesuperior" unicode="&#xb3;" horiz-adv-x="641" 
d="M285 1020l86 -4q48 -2 100.5 54t52.5 132q0 82 -98 82q-44 0 -76.5 -10t-32.5 -25q0 -4 20.5 -15.5t20.5 -37.5q0 -47 -63 -47q-26 0 -42.5 14.5t-16.5 32.5q0 47 62 81t151 34q90 0 146 -39t56 -94q0 -130 -231 -170v-4q194 -22 194 -148q0 -86 -95 -150.5t-218 -64.5
q-88 0 -146.5 36.5t-58.5 82.5q0 28 21.5 46.5t54.5 18.5q25 0 43 -13.5t18 -33.5q0 -30 -32.5 -42t-32.5 -23q0 -15 38 -30t77 -15q92 0 145 65t53 150q0 108 -116 108l-91 -6q-20 0 -20 16q0 9 11.5 14t19.5 5z" />
    <glyph glyph-name="onehalf" unicode="&#xbd;" horiz-adv-x="1898" 
d="M693 1311l-172 -631h144l-7 -25h-405l6 25h137l166 590h-153l8 24h86q122 0 190 17zM1478 1342h90l-1251 -1442h-90zM1464 117l-53 -170h-465v31q39 47 268 205q197 139 197 299q0 43 -31.5 68.5t-77.5 25.5q-73 0 -126.5 -35t-53.5 -65q0 -19 20 -19q51 0 67.5 -6
t16.5 -33q0 -20 -19 -34.5t-46 -14.5q-36 0 -59 22.5t-23 51.5q0 60 67.5 110t178.5 50q99 0 159 -41t60 -105q0 -40 -35.5 -86.5t-224.5 -173.5l-101 -67q-107 -72 -141 -103h277q48 0 65 7t31 41t14 42h35z" />
    <glyph glyph-name="onequarter" unicode="&#xbc;" horiz-adv-x="1898" 
d="M693 1311l-172 -631h144l-7 -25h-405l6 25h137l166 590h-153l8 24h86q122 0 190 17zM1474 1342h90l-1251 -1442h-90zM1511 604l-131 -461h115l18 60h33l-45 -158h-33l21 74h-115l-41 -148h94l-6 -24h-313l6 24h96l41 148h-301v18q216 236 500 467h61zM1259 143l97 340
l-4 4q-211 -182 -359 -344h266z" />
    <glyph glyph-name="threequarters" unicode="&#xbe;" horiz-adv-x="1898" 
d="M427 1020l86 -4q48 -2 100.5 54t52.5 132q0 82 -98 82q-44 0 -76.5 -10t-32.5 -25q0 -4 20.5 -15.5t20.5 -37.5q0 -47 -63 -47q-26 0 -42.5 14.5t-16.5 32.5q0 47 62 81t151 34q90 0 146 -39t56 -94q0 -130 -231 -170v-4q194 -22 194 -148q0 -86 -95 -150.5t-218 -64.5
q-88 0 -146.5 36.5t-58.5 82.5q0 28 21.5 46.5t54.5 18.5q25 0 43 -13.5t18 -33.5q0 -30 -32.5 -42t-32.5 -23q0 -15 38 -30t77 -15q92 0 145 65t53 150q0 108 -116 108l-91 -6q-20 0 -20 16q0 9 11.5 14t19.5 5zM1470 1342h90l-1251 -1442h-90zM1509 605l-131 -461h115
l18 60h33l-45 -158h-33l21 74h-115l-41 -148h94l-6 -24h-313l6 24h96l41 148h-301v18q216 236 500 467h61zM1257 144l97 340l-4 4q-211 -182 -359 -344h266z" />
    <glyph glyph-name="foursuperior" horiz-adv-x="641" 
d="M585 1312l-131 -461h115l18 60h33l-45 -158h-33l21 74h-115l-41 -148h94l-6 -24h-313l6 24h96l41 148h-301v18q216 236 500 467h61zM333 851l97 340l-4 4q-211 -182 -359 -344h266z" />
    <glyph glyph-name="currency" unicode="&#xa4;" horiz-adv-x="1366" 
d="M205 1061l76 76l127 -127q116 96 274 96q157 0 279 -96l126 127l74 -76l-127 -125q96 -129 96 -283q0 -155 -96 -270l127 -127l-74 -74l-126 127q-122 -98 -281 -98t-272 98l-127 -127l-76 74l129 127q-96 143 -96 283t96 270zM1026 657q0 142 -101 242t-241 100
t-240 -100t-100 -242q0 -139 100 -239.5t240 -100.5t241 100.5t101 239.5z" />
    </font>
</defs>
</svg>
